<svg width="570" height="340" viewBox="0 0 570 340" fill="none" xmlns="http://www.w3.org/2000/svg">
<rect width="570" height="340" rx="25" fill="url(#paint0_linear_595_9258)"/>
<path d="M47.938 149.6C48.6713 149.6 49.192 149.754 49.5 150.062C49.808 150.355 49.962 150.825 49.962 151.47V164.516C49.962 164.839 49.8007 165 49.478 165H47.212C46.8893 165 46.728 164.839 46.728 164.516V152.988C46.728 152.68 46.574 152.526 46.266 152.526H45.012C44.6747 152.526 44.506 152.365 44.506 152.042V150.084C44.506 149.761 44.6747 149.6 45.012 149.6H47.938ZM66.1516 149.6C67.2663 149.6 68.2123 149.71 68.9896 149.93C69.7669 150.135 70.3976 150.473 70.8816 150.942C71.3803 151.397 71.7396 151.991 71.9596 152.724C72.1943 153.457 72.3116 154.352 72.3116 155.408V159.192C72.3116 160.248 72.1943 161.15 71.9596 161.898C71.7396 162.631 71.3803 163.233 70.8816 163.702C70.3976 164.157 69.7669 164.487 68.9896 164.692C68.2123 164.897 67.2663 165 66.1516 165H61.0696C59.9549 165 59.0089 164.897 58.2316 164.692C57.4543 164.487 56.8163 164.157 56.3176 163.702C55.8336 163.233 55.4743 162.631 55.2396 161.898C55.0196 161.15 54.9096 160.248 54.9096 159.192V155.408C54.9096 154.352 55.0196 153.457 55.2396 152.724C55.4743 151.991 55.8336 151.397 56.3176 150.942C56.8163 150.473 57.4543 150.135 58.2316 149.93C59.0089 149.71 59.9549 149.6 61.0696 149.6H66.1516ZM58.1656 159.06C58.1656 159.647 58.2096 160.138 58.2976 160.534C58.3856 160.915 58.5396 161.223 58.7596 161.458C58.9796 161.678 59.2729 161.839 59.6396 161.942C60.0209 162.03 60.4976 162.074 61.0696 162.074H66.1516C66.7236 162.074 67.1929 162.03 67.5596 161.942C67.9409 161.839 68.2416 161.678 68.4616 161.458C68.6816 161.223 68.8356 160.915 68.9236 160.534C69.0116 160.138 69.0556 159.647 69.0556 159.06V155.54C69.0556 154.953 69.0116 154.469 68.9236 154.088C68.8356 153.707 68.6816 153.399 68.4616 153.164C68.2416 152.929 67.9409 152.768 67.5596 152.68C67.1929 152.577 66.7236 152.526 66.1516 152.526H61.0696C60.4976 152.526 60.0209 152.577 59.6396 152.68C59.2729 152.768 58.9796 152.929 58.7596 153.164C58.5396 153.399 58.3856 153.707 58.2976 154.088C58.2096 154.469 58.1656 154.953 58.1656 155.54V159.06ZM88.3106 149.6C89.4252 149.6 90.3712 149.71 91.1486 149.93C91.9259 150.135 92.5566 150.473 93.0406 150.942C93.5392 151.397 93.8986 151.991 94.1186 152.724C94.3532 153.457 94.4706 154.352 94.4706 155.408V159.192C94.4706 160.248 94.3532 161.15 94.1186 161.898C93.8986 162.631 93.5392 163.233 93.0406 163.702C92.5566 164.157 91.9259 164.487 91.1486 164.692C90.3712 164.897 89.4252 165 88.3106 165H83.2286C82.1139 165 81.1679 164.897 80.3906 164.692C79.6132 164.487 78.9752 164.157 78.4766 163.702C77.9926 163.233 77.6332 162.631 77.3986 161.898C77.1786 161.15 77.0686 160.248 77.0686 159.192V155.408C77.0686 154.352 77.1786 153.457 77.3986 152.724C77.6332 151.991 77.9926 151.397 78.4766 150.942C78.9752 150.473 79.6132 150.135 80.3906 149.93C81.1679 149.71 82.1139 149.6 83.2286 149.6H88.3106ZM80.3246 159.06C80.3246 159.647 80.3686 160.138 80.4566 160.534C80.5446 160.915 80.6986 161.223 80.9186 161.458C81.1386 161.678 81.4319 161.839 81.7986 161.942C82.1799 162.03 82.6566 162.074 83.2286 162.074H88.3106C88.8826 162.074 89.3519 162.03 89.7186 161.942C90.0999 161.839 90.4006 161.678 90.6206 161.458C90.8406 161.223 90.9946 160.915 91.0826 160.534C91.1706 160.138 91.2146 159.647 91.2146 159.06V155.54C91.2146 154.953 91.1706 154.469 91.0826 154.088C90.9946 153.707 90.8406 153.399 90.6206 153.164C90.4006 152.929 90.0999 152.768 89.7186 152.68C89.3519 152.577 88.8826 152.526 88.3106 152.526H83.2286C82.6566 152.526 82.1799 152.577 81.7986 152.68C81.4319 152.768 81.1386 152.929 80.9186 153.164C80.6986 153.399 80.5446 153.707 80.4566 154.088C80.3686 154.469 80.3246 154.953 80.3246 155.54V159.06ZM109.612 149.6C110.726 149.6 111.672 149.71 112.45 149.93C113.227 150.135 113.858 150.473 114.342 150.942C114.84 151.397 115.2 151.991 115.42 152.724C115.654 153.457 115.772 154.352 115.772 155.408V159.192C115.772 160.248 115.654 161.15 115.42 161.898C115.2 162.631 114.84 163.233 114.342 163.702C113.858 164.157 113.227 164.487 112.45 164.692C111.672 164.897 110.726 165 109.612 165H100.174C99.8509 165 99.6896 164.839 99.6896 164.516V162.558C99.6896 162.235 99.8509 162.074 100.174 162.074H109.612C110.184 162.074 110.653 162.03 111.02 161.942C111.401 161.839 111.702 161.678 111.922 161.458C112.142 161.223 112.296 160.915 112.384 160.534C112.472 160.138 112.516 159.647 112.516 159.06V158.576H103.21C100.511 158.576 99.1616 157.388 99.1616 155.012V153.56C99.1616 152.225 99.4989 151.235 100.174 150.59C100.863 149.93 101.926 149.6 103.364 149.6H109.612ZM102.374 154.748C102.374 155.203 102.469 155.555 102.66 155.804C102.85 156.039 103.18 156.156 103.65 156.156H112.516V155.43C112.516 154.858 112.472 154.381 112.384 154C112.296 153.604 112.142 153.296 111.922 153.076C111.702 152.841 111.401 152.68 111.02 152.592C110.653 152.489 110.184 152.438 109.612 152.438H103.65C103.195 152.438 102.865 152.548 102.66 152.768C102.469 152.973 102.374 153.303 102.374 153.758V154.748ZM151.369 149.6C152.88 149.6 153.951 149.901 154.581 150.502C155.227 151.103 155.549 152.013 155.549 153.23V154.286C155.549 155.503 155.117 156.435 154.251 157.08C155.19 157.681 155.659 158.627 155.659 159.918V161.194C155.659 161.781 155.593 162.309 155.461 162.778C155.329 163.247 155.109 163.651 154.801 163.988C154.493 164.311 154.09 164.56 153.591 164.736C153.093 164.912 152.484 165 151.765 165H139.973C139.651 165 139.489 164.839 139.489 164.516V162.558C139.489 162.235 139.651 162.074 139.973 162.074H150.775C151.347 162.074 151.758 161.964 152.007 161.744C152.271 161.524 152.403 161.179 152.403 160.71V159.896C152.403 159.441 152.264 159.097 151.985 158.862C151.721 158.613 151.223 158.488 150.489 158.488H140.105C139.768 158.488 139.599 158.327 139.599 158.004V156.442C139.599 156.119 139.768 155.958 140.105 155.958H150.489C151.223 155.958 151.721 155.848 151.985 155.628C152.249 155.393 152.381 155.063 152.381 154.638V153.868C152.381 153.399 152.249 153.061 151.985 152.856C151.736 152.636 151.318 152.526 150.731 152.526H139.973C139.651 152.526 139.489 152.365 139.489 152.042V150.084C139.489 149.761 139.651 149.6 139.973 149.6H151.369ZM170.746 150.26C171.113 150.011 171.443 149.842 171.736 149.754C172.044 149.651 172.448 149.6 172.946 149.6H174.244C174.89 149.6 175.366 149.754 175.674 150.062C175.997 150.355 176.158 150.949 176.158 151.844V159.082H177.962C178.285 159.082 178.446 159.251 178.446 159.588V161.37C178.446 161.693 178.285 161.854 177.962 161.854H176.158V164.516C176.158 164.839 175.997 165 175.674 165H173.408C173.071 165 172.902 164.839 172.902 164.516V161.854H161.33C160.861 161.854 160.509 161.729 160.274 161.48C160.04 161.231 159.922 160.908 159.922 160.512V158.84C159.922 158.429 159.981 158.092 160.098 157.828C160.216 157.549 160.443 157.293 160.78 157.058L170.746 150.26ZM163.552 158.928C163.552 159.031 163.611 159.082 163.728 159.082H172.902V152.768C172.902 152.607 172.844 152.526 172.726 152.526H172.594C172.448 152.526 172.286 152.585 172.11 152.702L163.684 158.488C163.596 158.561 163.552 158.664 163.552 158.796V158.928ZM192.862 150.26C193.229 150.011 193.559 149.842 193.852 149.754C194.16 149.651 194.564 149.6 195.062 149.6H196.36C197.006 149.6 197.482 149.754 197.79 150.062C198.113 150.355 198.274 150.949 198.274 151.844V159.082H200.078C200.401 159.082 200.562 159.251 200.562 159.588V161.37C200.562 161.693 200.401 161.854 200.078 161.854H198.274V164.516C198.274 164.839 198.113 165 197.79 165H195.524C195.187 165 195.018 164.839 195.018 164.516V161.854H183.446C182.977 161.854 182.625 161.729 182.39 161.48C182.156 161.231 182.038 160.908 182.038 160.512V158.84C182.038 158.429 182.097 158.092 182.214 157.828C182.332 157.549 182.559 157.293 182.896 157.058L192.862 150.26ZM185.668 158.928C185.668 159.031 185.727 159.082 185.844 159.082H195.018V152.768C195.018 152.607 194.96 152.526 194.842 152.526H194.71C194.564 152.526 194.402 152.585 194.226 152.702L185.8 158.488C185.712 158.561 185.668 158.664 185.668 158.796V158.928ZM220.127 149.6C220.449 149.6 220.611 149.761 220.611 150.084V152.042C220.611 152.365 220.449 152.526 220.127 152.526H208.269C207.975 152.526 207.829 152.68 207.829 152.988V155.496C207.829 155.804 207.975 155.958 208.269 155.958H217.333C218.609 155.958 219.569 156.288 220.215 156.948C220.86 157.593 221.183 158.517 221.183 159.72V161.414C221.183 162.485 220.867 163.35 220.237 164.01C219.606 164.67 218.623 165 217.289 165H205.101C204.763 165 204.595 164.839 204.595 164.516V162.558C204.595 162.235 204.763 162.074 205.101 162.074H216.761C217.186 162.074 217.487 161.964 217.663 161.744C217.839 161.509 217.927 161.201 217.927 160.82V159.72C217.927 158.899 217.545 158.488 216.783 158.488H206.619C205.871 158.488 205.343 158.341 205.035 158.048C204.727 157.755 204.573 157.278 204.573 156.618V151.47C204.573 150.825 204.727 150.355 205.035 150.062C205.343 149.754 205.871 149.6 206.619 149.6H220.127ZM258.015 149.6C259.526 149.6 260.596 149.901 261.227 150.502C261.872 151.103 262.195 152.013 262.195 153.23V154.286C262.195 155.562 261.74 156.508 260.831 157.124C261.814 157.681 262.305 158.613 262.305 159.918V161.194C262.305 161.781 262.239 162.309 262.107 162.778C261.975 163.247 261.755 163.651 261.447 163.988C261.139 164.311 260.736 164.56 260.237 164.736C259.738 164.912 259.13 165 258.411 165H248.863C248.13 165 247.514 164.912 247.015 164.736C246.531 164.56 246.135 164.311 245.827 163.988C245.519 163.651 245.299 163.247 245.167 162.778C245.035 162.309 244.969 161.781 244.969 161.194V159.918C244.969 158.613 245.46 157.681 246.443 157.124C245.534 156.508 245.079 155.562 245.079 154.286V153.23C245.079 152.614 245.152 152.079 245.299 151.624C245.46 151.169 245.702 150.795 246.025 150.502C246.362 150.194 246.795 149.967 247.323 149.82C247.851 149.673 248.496 149.6 249.259 149.6H258.015ZM248.247 160.754C248.247 161.223 248.372 161.568 248.621 161.788C248.87 161.993 249.288 162.096 249.875 162.096H257.399C257.986 162.096 258.404 161.993 258.653 161.788C258.917 161.568 259.049 161.223 259.049 160.754V159.786C259.049 159.331 258.91 158.987 258.631 158.752C258.367 158.517 257.868 158.4 257.135 158.4H250.139C249.406 158.4 248.907 158.517 248.643 158.752C248.379 158.987 248.247 159.331 248.247 159.786V160.754ZM248.269 154.726C248.269 155.151 248.394 155.481 248.643 155.716C248.907 155.936 249.406 156.046 250.139 156.046H257.135C257.868 156.046 258.36 155.936 258.609 155.716C258.873 155.481 259.005 155.151 259.005 154.726V153.912C259.005 153.457 258.88 153.113 258.631 152.878C258.382 152.629 257.964 152.504 257.377 152.504H249.897C249.31 152.504 248.892 152.629 248.643 152.878C248.394 153.113 248.269 153.457 248.269 153.912V154.726ZM280.11 149.6C281.62 149.6 282.691 149.901 283.322 150.502C283.967 151.103 284.29 152.013 284.29 153.23V154.286C284.29 155.562 283.835 156.508 282.926 157.124C283.908 157.681 284.4 158.613 284.4 159.918V161.194C284.4 161.781 284.334 162.309 284.202 162.778C284.07 163.247 283.85 163.651 283.542 163.988C283.234 164.311 282.83 164.56 282.332 164.736C281.833 164.912 281.224 165 280.506 165H270.958C270.224 165 269.608 164.912 269.11 164.736C268.626 164.56 268.23 164.311 267.922 163.988C267.614 163.651 267.394 163.247 267.262 162.778C267.13 162.309 267.064 161.781 267.064 161.194V159.918C267.064 158.613 267.555 157.681 268.538 157.124C267.628 156.508 267.174 155.562 267.174 154.286V153.23C267.174 152.614 267.247 152.079 267.394 151.624C267.555 151.169 267.797 150.795 268.12 150.502C268.457 150.194 268.89 149.967 269.418 149.82C269.946 149.673 270.591 149.6 271.354 149.6H280.11ZM270.342 160.754C270.342 161.223 270.466 161.568 270.716 161.788C270.965 161.993 271.383 162.096 271.97 162.096H279.494C280.08 162.096 280.498 161.993 280.748 161.788C281.012 161.568 281.144 161.223 281.144 160.754V159.786C281.144 159.331 281.004 158.987 280.726 158.752C280.462 158.517 279.963 158.4 279.23 158.4H272.234C271.5 158.4 271.002 158.517 270.738 158.752C270.474 158.987 270.342 159.331 270.342 159.786V160.754ZM270.364 154.726C270.364 155.151 270.488 155.481 270.738 155.716C271.002 155.936 271.5 156.046 272.234 156.046H279.23C279.963 156.046 280.454 155.936 280.704 155.716C280.968 155.481 281.1 155.151 281.1 154.726V153.912C281.1 153.457 280.975 153.113 280.726 152.878C280.476 152.629 280.058 152.504 279.472 152.504H271.992C271.405 152.504 270.987 152.629 270.738 152.878C270.488 153.113 270.364 153.457 270.364 153.912V154.726ZM302.204 149.6C303.715 149.6 304.785 149.901 305.416 150.502C306.061 151.103 306.384 152.013 306.384 153.23V154.286C306.384 155.562 305.929 156.508 305.02 157.124C306.003 157.681 306.494 158.613 306.494 159.918V161.194C306.494 161.781 306.428 162.309 306.296 162.778C306.164 163.247 305.944 163.651 305.636 163.988C305.328 164.311 304.925 164.56 304.426 164.736C303.927 164.912 303.319 165 302.6 165H293.052C292.319 165 291.703 164.912 291.204 164.736C290.72 164.56 290.324 164.311 290.016 163.988C289.708 163.651 289.488 163.247 289.356 162.778C289.224 162.309 289.158 161.781 289.158 161.194V159.918C289.158 158.613 289.649 157.681 290.632 157.124C289.723 156.508 289.268 155.562 289.268 154.286V153.23C289.268 152.614 289.341 152.079 289.488 151.624C289.649 151.169 289.891 150.795 290.214 150.502C290.551 150.194 290.984 149.967 291.512 149.82C292.04 149.673 292.685 149.6 293.448 149.6H302.204ZM292.436 160.754C292.436 161.223 292.561 161.568 292.81 161.788C293.059 161.993 293.477 162.096 294.064 162.096H301.588C302.175 162.096 302.593 161.993 302.842 161.788C303.106 161.568 303.238 161.223 303.238 160.754V159.786C303.238 159.331 303.099 158.987 302.82 158.752C302.556 158.517 302.057 158.4 301.324 158.4H294.328C293.595 158.4 293.096 158.517 292.832 158.752C292.568 158.987 292.436 159.331 292.436 159.786V160.754ZM292.458 154.726C292.458 155.151 292.583 155.481 292.832 155.716C293.096 155.936 293.595 156.046 294.328 156.046H301.324C302.057 156.046 302.549 155.936 302.798 155.716C303.062 155.481 303.194 155.151 303.194 154.726V153.912C303.194 153.457 303.069 153.113 302.82 152.878C302.571 152.629 302.153 152.504 301.566 152.504H294.086C293.499 152.504 293.081 152.629 292.832 152.878C292.583 153.113 292.458 153.457 292.458 153.912V154.726ZM324.299 149.6C325.809 149.6 326.88 149.901 327.511 150.502C328.156 151.103 328.479 152.013 328.479 153.23V154.286C328.479 155.562 328.024 156.508 327.115 157.124C328.097 157.681 328.589 158.613 328.589 159.918V161.194C328.589 161.781 328.523 162.309 328.391 162.778C328.259 163.247 328.039 163.651 327.731 163.988C327.423 164.311 327.019 164.56 326.521 164.736C326.022 164.912 325.413 165 324.695 165H315.147C314.413 165 313.797 164.912 313.299 164.736C312.815 164.56 312.419 164.311 312.111 163.988C311.803 163.651 311.583 163.247 311.451 162.778C311.319 162.309 311.253 161.781 311.253 161.194V159.918C311.253 158.613 311.744 157.681 312.727 157.124C311.817 156.508 311.363 155.562 311.363 154.286V153.23C311.363 152.614 311.436 152.079 311.583 151.624C311.744 151.169 311.986 150.795 312.309 150.502C312.646 150.194 313.079 149.967 313.607 149.82C314.135 149.673 314.78 149.6 315.543 149.6H324.299ZM314.531 160.754C314.531 161.223 314.655 161.568 314.905 161.788C315.154 161.993 315.572 162.096 316.159 162.096H323.683C324.269 162.096 324.687 161.993 324.937 161.788C325.201 161.568 325.333 161.223 325.333 160.754V159.786C325.333 159.331 325.193 158.987 324.915 158.752C324.651 158.517 324.152 158.4 323.419 158.4H316.423C315.689 158.4 315.191 158.517 314.927 158.752C314.663 158.987 314.531 159.331 314.531 159.786V160.754ZM314.553 154.726C314.553 155.151 314.677 155.481 314.927 155.716C315.191 155.936 315.689 156.046 316.423 156.046H323.419C324.152 156.046 324.643 155.936 324.893 155.716C325.157 155.481 325.289 155.151 325.289 154.726V153.912C325.289 153.457 325.164 153.113 324.915 152.878C324.665 152.629 324.247 152.504 323.661 152.504H316.181C315.594 152.504 315.176 152.629 314.927 152.878C314.677 153.113 314.553 153.457 314.553 153.912V154.726ZM362.869 149.6C363.984 149.6 364.93 149.71 365.707 149.93C366.485 150.135 367.115 150.473 367.599 150.942C368.098 151.397 368.457 151.991 368.677 152.724C368.912 153.457 369.029 154.352 369.029 155.408V159.192C369.029 160.248 368.912 161.15 368.677 161.898C368.457 162.631 368.098 163.233 367.599 163.702C367.115 164.157 366.485 164.487 365.707 164.692C364.93 164.897 363.984 165 362.869 165H353.431C353.109 165 352.947 164.839 352.947 164.516V162.558C352.947 162.235 353.109 162.074 353.431 162.074H362.869C363.441 162.074 363.911 162.03 364.277 161.942C364.659 161.839 364.959 161.678 365.179 161.458C365.399 161.223 365.553 160.915 365.641 160.534C365.729 160.138 365.773 159.647 365.773 159.06V158.576H356.467C353.769 158.576 352.419 157.388 352.419 155.012V153.56C352.419 152.225 352.757 151.235 353.431 150.59C354.121 149.93 355.184 149.6 356.621 149.6H362.869ZM355.631 154.748C355.631 155.203 355.727 155.555 355.917 155.804C356.108 156.039 356.438 156.156 356.907 156.156H365.773V155.43C365.773 154.858 365.729 154.381 365.641 154C365.553 153.604 365.399 153.296 365.179 153.076C364.959 152.841 364.659 152.68 364.277 152.592C363.911 152.489 363.441 152.438 362.869 152.438H356.907C356.453 152.438 356.123 152.548 355.917 152.768C355.727 152.973 355.631 153.303 355.631 153.758V154.748ZM384.169 149.6C385.284 149.6 386.23 149.71 387.007 149.93C387.784 150.135 388.415 150.473 388.899 150.942C389.398 151.397 389.757 151.991 389.977 152.724C390.212 153.457 390.329 154.352 390.329 155.408V159.192C390.329 160.248 390.212 161.15 389.977 161.898C389.757 162.631 389.398 163.233 388.899 163.702C388.415 164.157 387.784 164.487 387.007 164.692C386.23 164.897 385.284 165 384.169 165H374.731C374.408 165 374.247 164.839 374.247 164.516V162.558C374.247 162.235 374.408 162.074 374.731 162.074H384.169C384.741 162.074 385.21 162.03 385.577 161.942C385.958 161.839 386.259 161.678 386.479 161.458C386.699 161.223 386.853 160.915 386.941 160.534C387.029 160.138 387.073 159.647 387.073 159.06V158.576H377.767C375.068 158.576 373.719 157.388 373.719 155.012V153.56C373.719 152.225 374.056 151.235 374.731 150.59C375.42 149.93 376.484 149.6 377.921 149.6H384.169ZM376.931 154.748C376.931 155.203 377.026 155.555 377.217 155.804C377.408 156.039 377.738 156.156 378.207 156.156H387.073V155.43C387.073 154.858 387.029 154.381 386.941 154C386.853 153.604 386.699 153.296 386.479 153.076C386.259 152.841 385.958 152.68 385.577 152.592C385.21 152.489 384.741 152.438 384.169 152.438H378.207C377.752 152.438 377.422 152.548 377.217 152.768C377.026 152.973 376.931 153.303 376.931 153.758V154.748ZM405.469 149.6C406.583 149.6 407.529 149.71 408.307 149.93C409.084 150.135 409.715 150.473 410.199 150.942C410.697 151.397 411.057 151.991 411.277 152.724C411.511 153.457 411.629 154.352 411.629 155.408V159.192C411.629 160.248 411.511 161.15 411.277 161.898C411.057 162.631 410.697 163.233 410.199 163.702C409.715 164.157 409.084 164.487 408.307 164.692C407.529 164.897 406.583 165 405.469 165H396.031C395.708 165 395.547 164.839 395.547 164.516V162.558C395.547 162.235 395.708 162.074 396.031 162.074H405.469C406.041 162.074 406.51 162.03 406.877 161.942C407.258 161.839 407.559 161.678 407.779 161.458C407.999 161.223 408.153 160.915 408.241 160.534C408.329 160.138 408.373 159.647 408.373 159.06V158.576H399.067C396.368 158.576 395.019 157.388 395.019 155.012V153.56C395.019 152.225 395.356 151.235 396.031 150.59C396.72 149.93 397.783 149.6 399.221 149.6H405.469ZM398.231 154.748C398.231 155.203 398.326 155.555 398.517 155.804C398.707 156.039 399.037 156.156 399.507 156.156H408.373V155.43C408.373 154.858 408.329 154.381 408.241 154C408.153 153.604 407.999 153.296 407.779 153.076C407.559 152.841 407.258 152.68 406.877 152.592C406.51 152.489 406.041 152.438 405.469 152.438H399.507C399.052 152.438 398.722 152.548 398.517 152.768C398.326 152.973 398.231 153.303 398.231 153.758V154.748ZM427.626 149.6C428.741 149.6 429.687 149.71 430.464 149.93C431.242 150.135 431.872 150.473 432.356 150.942C432.855 151.397 433.214 151.991 433.434 152.724C433.669 153.457 433.786 154.352 433.786 155.408V159.192C433.786 160.248 433.669 161.15 433.434 161.898C433.214 162.631 432.855 163.233 432.356 163.702C431.872 164.157 431.242 164.487 430.464 164.692C429.687 164.897 428.741 165 427.626 165H422.544C421.43 165 420.484 164.897 419.706 164.692C418.929 164.487 418.291 164.157 417.792 163.702C417.308 163.233 416.949 162.631 416.714 161.898C416.494 161.15 416.384 160.248 416.384 159.192V155.408C416.384 154.352 416.494 153.457 416.714 152.724C416.949 151.991 417.308 151.397 417.792 150.942C418.291 150.473 418.929 150.135 419.706 149.93C420.484 149.71 421.43 149.6 422.544 149.6H427.626ZM419.64 159.06C419.64 159.647 419.684 160.138 419.772 160.534C419.86 160.915 420.014 161.223 420.234 161.458C420.454 161.678 420.748 161.839 421.114 161.942C421.496 162.03 421.972 162.074 422.544 162.074H427.626C428.198 162.074 428.668 162.03 429.034 161.942C429.416 161.839 429.716 161.678 429.936 161.458C430.156 161.223 430.31 160.915 430.398 160.534C430.486 160.138 430.53 159.647 430.53 159.06V155.54C430.53 154.953 430.486 154.469 430.398 154.088C430.31 153.707 430.156 153.399 429.936 153.164C429.716 152.929 429.416 152.768 429.034 152.68C428.668 152.577 428.198 152.526 427.626 152.526H422.544C421.972 152.526 421.496 152.577 421.114 152.68C420.748 152.768 420.454 152.929 420.234 153.164C420.014 153.399 419.86 153.707 419.772 154.088C419.684 154.469 419.64 154.953 419.64 155.54V159.06Z" fill="white"/>
<path d="M44.559 255.463C44.559 254.579 44.7583 253.786 45.157 253.084C45.5557 252.373 46.0973 251.819 46.782 251.42C47.4753 251.021 48.2423 250.822 49.083 250.822C50.071 250.822 50.9333 251.06 51.67 251.537C52.4067 252.014 52.944 252.69 53.282 253.565H51.865C51.6137 253.019 51.2497 252.599 50.773 252.304C50.305 252.009 49.7417 251.862 49.083 251.862C48.4503 251.862 47.8827 252.009 47.38 252.304C46.8773 252.599 46.483 253.019 46.197 253.565C45.911 254.102 45.768 254.735 45.768 255.463C45.768 256.182 45.911 256.815 46.197 257.361C46.483 257.898 46.8773 258.314 47.38 258.609C47.8827 258.904 48.4503 259.051 49.083 259.051C49.7417 259.051 50.305 258.908 50.773 258.622C51.2497 258.327 51.6137 257.907 51.865 257.361H53.282C52.944 258.228 52.4067 258.899 51.67 259.376C50.9333 259.844 50.071 260.078 49.083 260.078C48.2423 260.078 47.4753 259.883 46.782 259.493C46.0973 259.094 45.5557 258.544 45.157 257.842C44.7583 257.14 44.559 256.347 44.559 255.463ZM54.601 256.412C54.601 255.684 54.7483 255.047 55.043 254.501C55.3377 253.946 55.7407 253.517 56.252 253.214C56.772 252.911 57.3483 252.759 57.981 252.759C58.605 252.759 59.1467 252.893 59.606 253.162C60.0653 253.431 60.4077 253.769 60.633 254.176V252.876H61.829V260H60.633V258.674C60.399 259.09 60.048 259.437 59.58 259.714C59.1207 259.983 58.5833 260.117 57.968 260.117C57.3353 260.117 56.7633 259.961 56.252 259.649C55.7407 259.337 55.3377 258.899 55.043 258.336C54.7483 257.773 54.601 257.131 54.601 256.412ZM60.633 256.425C60.633 255.888 60.5247 255.42 60.308 255.021C60.0913 254.622 59.7967 254.319 59.424 254.111C59.06 253.894 58.657 253.786 58.215 253.786C57.773 253.786 57.37 253.89 57.006 254.098C56.642 254.306 56.3517 254.609 56.135 255.008C55.9183 255.407 55.81 255.875 55.81 256.412C55.81 256.958 55.9183 257.435 56.135 257.842C56.3517 258.241 56.642 258.548 57.006 258.765C57.37 258.973 57.773 259.077 58.215 259.077C58.657 259.077 59.06 258.973 59.424 258.765C59.7967 258.548 60.0913 258.241 60.308 257.842C60.5247 257.435 60.633 256.962 60.633 256.425ZM65.0111 254.033C65.2191 253.626 65.5138 253.309 65.8951 253.084C66.2851 252.859 66.7575 252.746 67.3121 252.746V253.968H67.0001C65.6741 253.968 65.0111 254.687 65.0111 256.126V260H63.8281V252.876H65.0111V254.033ZM68.2358 256.412C68.2358 255.684 68.3831 255.047 68.6778 254.501C68.9724 253.946 69.3754 253.517 69.8868 253.214C70.4068 252.911 70.9874 252.759 71.6288 252.759C72.1834 252.759 72.6991 252.889 73.1758 253.149C73.6524 253.4 74.0164 253.734 74.2678 254.15V250.38H75.4638V260H74.2678V258.661C74.0338 259.086 73.6871 259.437 73.2278 259.714C72.7684 259.983 72.2311 260.117 71.6158 260.117C70.9831 260.117 70.4068 259.961 69.8868 259.649C69.3754 259.337 68.9724 258.899 68.6778 258.336C68.3831 257.773 68.2358 257.131 68.2358 256.412ZM74.2678 256.425C74.2678 255.888 74.1594 255.42 73.9428 255.021C73.7261 254.622 73.4314 254.319 73.0588 254.111C72.6948 253.894 72.2918 253.786 71.8498 253.786C71.4078 253.786 71.0048 253.89 70.6408 254.098C70.2768 254.306 69.9864 254.609 69.7698 255.008C69.5531 255.407 69.4448 255.875 69.4448 256.412C69.4448 256.958 69.5531 257.435 69.7698 257.842C69.9864 258.241 70.2768 258.548 70.6408 258.765C71.0048 258.973 71.4078 259.077 71.8498 259.077C72.2918 259.077 72.6948 258.973 73.0588 258.765C73.4314 258.548 73.7261 258.241 73.9428 257.842C74.1594 257.435 74.2678 256.962 74.2678 256.425ZM87.9097 250.939V260H86.7267V255.892H82.1117V260H80.9287V250.939H82.1117V254.917H86.7267V250.939H87.9097ZM93.0367 260.117C92.3694 260.117 91.7627 259.965 91.2167 259.662C90.6794 259.359 90.2547 258.93 89.9427 258.375C89.6394 257.812 89.4877 257.162 89.4877 256.425C89.4877 255.697 89.6437 255.056 89.9557 254.501C90.2764 253.938 90.7097 253.509 91.2557 253.214C91.8017 252.911 92.4127 252.759 93.0887 252.759C93.7647 252.759 94.3757 252.911 94.9217 253.214C95.4677 253.509 95.8967 253.933 96.2087 254.488C96.5294 255.043 96.6897 255.688 96.6897 256.425C96.6897 257.162 96.525 257.812 96.1957 258.375C95.875 258.93 95.4374 259.359 94.8827 259.662C94.328 259.965 93.7127 260.117 93.0367 260.117ZM93.0367 259.077C93.4614 259.077 93.86 258.977 94.2327 258.778C94.6054 258.579 94.9044 258.28 95.1297 257.881C95.3637 257.482 95.4807 256.997 95.4807 256.425C95.4807 255.853 95.368 255.368 95.1427 254.969C94.9174 254.57 94.6227 254.276 94.2587 254.085C93.8947 253.886 93.5004 253.786 93.0757 253.786C92.6424 253.786 92.2437 253.886 91.8797 254.085C91.5244 254.276 91.2384 254.57 91.0217 254.969C90.805 255.368 90.6967 255.853 90.6967 256.425C90.6967 257.006 90.8007 257.495 91.0087 257.894C91.2254 258.293 91.5114 258.592 91.8667 258.791C92.222 258.982 92.612 259.077 93.0367 259.077ZM99.4281 250.38V260H98.2451V250.38H99.4281ZM101.002 256.412C101.002 255.684 101.15 255.047 101.444 254.501C101.739 253.946 102.142 253.517 102.653 253.214C103.173 252.911 103.754 252.759 104.395 252.759C104.95 252.759 105.466 252.889 105.942 253.149C106.419 253.4 106.783 253.734 107.034 254.15V250.38H108.23V260H107.034V258.661C106.8 259.086 106.454 259.437 105.994 259.714C105.535 259.983 104.998 260.117 104.382 260.117C103.75 260.117 103.173 259.961 102.653 259.649C102.142 259.337 101.739 258.899 101.444 258.336C101.15 257.773 101.002 257.131 101.002 256.412ZM107.034 256.425C107.034 255.888 106.926 255.42 106.709 255.021C106.493 254.622 106.198 254.319 105.825 254.111C105.461 253.894 105.058 253.786 104.616 253.786C104.174 253.786 103.771 253.89 103.407 254.098C103.043 254.306 102.753 254.609 102.536 255.008C102.32 255.407 102.211 255.875 102.211 256.412C102.211 256.958 102.32 257.435 102.536 257.842C102.753 258.241 103.043 258.548 103.407 258.765C103.771 258.973 104.174 259.077 104.616 259.077C105.058 259.077 105.461 258.973 105.825 258.765C106.198 258.548 106.493 258.241 106.709 257.842C106.926 257.435 107.034 256.962 107.034 256.425ZM116.73 256.165C116.73 256.39 116.717 256.629 116.691 256.88H110.997C111.04 257.582 111.278 258.132 111.712 258.531C112.154 258.921 112.687 259.116 113.311 259.116C113.822 259.116 114.247 258.999 114.585 258.765C114.931 258.522 115.174 258.202 115.313 257.803H116.587C116.396 258.488 116.015 259.047 115.443 259.48C114.871 259.905 114.16 260.117 113.311 260.117C112.635 260.117 112.028 259.965 111.491 259.662C110.962 259.359 110.546 258.93 110.243 258.375C109.939 257.812 109.788 257.162 109.788 256.425C109.788 255.688 109.935 255.043 110.23 254.488C110.524 253.933 110.936 253.509 111.465 253.214C112.002 252.911 112.617 252.759 113.311 252.759C113.987 252.759 114.585 252.906 115.105 253.201C115.625 253.496 116.023 253.903 116.301 254.423C116.587 254.934 116.73 255.515 116.73 256.165ZM115.508 255.918C115.508 255.467 115.408 255.082 115.209 254.761C115.009 254.432 114.736 254.185 114.39 254.02C114.052 253.847 113.675 253.76 113.259 253.76C112.661 253.76 112.149 253.951 111.725 254.332C111.309 254.713 111.07 255.242 111.01 255.918H115.508ZM119.474 254.033C119.682 253.626 119.977 253.309 120.358 253.084C120.748 252.859 121.22 252.746 121.775 252.746V253.968H121.463C120.137 253.968 119.474 254.687 119.474 256.126V260H118.291V252.876H119.474V254.033Z" fill="#DDDDDD"/>
<path d="M492.679 251.901V254.93H495.981V255.905H492.679V259.025H496.371V260H491.496V250.926H496.371V251.901H492.679ZM501.879 260L500.189 257.348L498.564 260H497.329L499.63 256.464L497.329 252.876H498.668L500.358 255.515L501.97 252.876H503.205L500.917 256.399L503.218 260H501.879ZM505.565 254.189C505.799 253.782 506.146 253.444 506.605 253.175C507.073 252.898 507.615 252.759 508.23 252.759C508.863 252.759 509.435 252.911 509.946 253.214C510.466 253.517 510.873 253.946 511.168 254.501C511.463 255.047 511.61 255.684 511.61 256.412C511.61 257.131 511.463 257.773 511.168 258.336C510.873 258.899 510.466 259.337 509.946 259.649C509.435 259.961 508.863 260.117 508.23 260.117C507.623 260.117 507.086 259.983 506.618 259.714C506.159 259.437 505.808 259.094 505.565 258.687V263.38H504.382V252.876H505.565V254.189ZM510.401 256.412C510.401 255.875 510.293 255.407 510.076 255.008C509.859 254.609 509.565 254.306 509.192 254.098C508.828 253.89 508.425 253.786 507.983 253.786C507.55 253.786 507.147 253.894 506.774 254.111C506.41 254.319 506.115 254.627 505.89 255.034C505.673 255.433 505.565 255.896 505.565 256.425C505.565 256.962 505.673 257.435 505.89 257.842C506.115 258.241 506.41 258.548 506.774 258.765C507.147 258.973 507.55 259.077 507.983 259.077C508.425 259.077 508.828 258.973 509.192 258.765C509.565 258.548 509.859 258.241 510.076 257.842C510.293 257.435 510.401 256.958 510.401 256.412ZM512.725 256.412C512.725 255.684 512.872 255.047 513.167 254.501C513.462 253.946 513.865 253.517 514.376 253.214C514.896 252.911 515.472 252.759 516.105 252.759C516.729 252.759 517.271 252.893 517.73 253.162C518.189 253.431 518.532 253.769 518.757 254.176V252.876H519.953V260H518.757V258.674C518.523 259.09 518.172 259.437 517.704 259.714C517.245 259.983 516.707 260.117 516.092 260.117C515.459 260.117 514.887 259.961 514.376 259.649C513.865 259.337 513.462 258.899 513.167 258.336C512.872 257.773 512.725 257.131 512.725 256.412ZM518.757 256.425C518.757 255.888 518.649 255.42 518.432 255.021C518.215 254.622 517.921 254.319 517.548 254.111C517.184 253.894 516.781 253.786 516.339 253.786C515.897 253.786 515.494 253.89 515.13 254.098C514.766 254.306 514.476 254.609 514.259 255.008C514.042 255.407 513.934 255.875 513.934 256.412C513.934 256.958 514.042 257.435 514.259 257.842C514.476 258.241 514.766 258.548 515.13 258.765C515.494 258.973 515.897 259.077 516.339 259.077C516.781 259.077 517.184 258.973 517.548 258.765C517.921 258.548 518.215 258.241 518.432 257.842C518.649 257.435 518.757 256.962 518.757 256.425ZM522.563 251.719C522.338 251.719 522.147 251.641 521.991 251.485C521.835 251.329 521.757 251.138 521.757 250.913C521.757 250.688 521.835 250.497 521.991 250.341C522.147 250.185 522.338 250.107 522.563 250.107C522.78 250.107 522.962 250.185 523.109 250.341C523.265 250.497 523.343 250.688 523.343 250.913C523.343 251.138 523.265 251.329 523.109 251.485C522.962 251.641 522.78 251.719 522.563 251.719ZM523.135 252.876V260H521.952V252.876H523.135ZM526.334 254.033C526.542 253.626 526.837 253.309 527.218 253.084C527.608 252.859 528.081 252.746 528.635 252.746V253.968H528.323C526.997 253.968 526.334 254.687 526.334 256.126V260H525.151V252.876H526.334V254.033Z" fill="#DDDDDD"/>
<path d="M55.336 289L51.176 281.772H48.914V289H45.95V270.93H52.19C53.5767 270.93 54.7467 271.173 55.7 271.658C56.6707 272.143 57.39 272.793 57.858 273.608C58.3433 274.423 58.586 275.333 58.586 276.338C58.586 277.517 58.2393 278.591 57.546 279.562C56.87 280.515 55.8213 281.165 54.4 281.512L58.872 289H55.336ZM48.914 279.406H52.19C53.2993 279.406 54.1313 279.129 54.686 278.574C55.258 278.019 55.544 277.274 55.544 276.338C55.544 275.402 55.2667 274.674 54.712 274.154C54.1573 273.617 53.3167 273.348 52.19 273.348H48.914V279.406ZM70.6197 289.182C68.9384 289.182 67.3871 288.792 65.9657 288.012C64.5617 287.215 63.4437 286.114 62.6117 284.71C61.7971 283.289 61.3897 281.694 61.3897 279.926C61.3897 278.158 61.7971 276.572 62.6117 275.168C63.4437 273.764 64.5617 272.672 65.9657 271.892C67.3871 271.095 68.9384 270.696 70.6197 270.696C72.3184 270.696 73.8697 271.095 75.2737 271.892C76.6951 272.672 77.8131 273.764 78.6277 275.168C79.4424 276.572 79.8497 278.158 79.8497 279.926C79.8497 281.694 79.4424 283.289 78.6277 284.71C77.8131 286.114 76.6951 287.215 75.2737 288.012C73.8697 288.792 72.3184 289.182 70.6197 289.182ZM70.6197 286.608C71.8157 286.608 72.8817 286.339 73.8177 285.802C74.7537 285.247 75.4817 284.467 76.0017 283.462C76.5391 282.439 76.8077 281.261 76.8077 279.926C76.8077 278.591 76.5391 277.421 76.0017 276.416C75.4817 275.411 74.7537 274.639 73.8177 274.102C72.8817 273.565 71.8157 273.296 70.6197 273.296C69.4237 273.296 68.3577 273.565 67.4217 274.102C66.4857 274.639 65.7491 275.411 65.2117 276.416C64.6917 277.421 64.4317 278.591 64.4317 279.926C64.4317 281.261 64.6917 282.439 65.2117 283.462C65.7491 284.467 66.4857 285.247 67.4217 285.802C68.3577 286.339 69.4237 286.608 70.6197 286.608ZM92.4384 279.718C93.4091 279.891 94.2324 280.403 94.9084 281.252C95.5844 282.101 95.9224 283.063 95.9224 284.138C95.9224 285.057 95.6797 285.889 95.1944 286.634C94.7264 287.362 94.0417 287.943 93.1404 288.376C92.2391 288.792 91.1904 289 89.9944 289H82.7664V270.93H89.6564C90.8871 270.93 91.9444 271.138 92.8284 271.554C93.7124 271.97 94.3797 272.533 94.8304 273.244C95.2811 273.937 95.5064 274.717 95.5064 275.584C95.5064 276.624 95.2291 277.491 94.6744 278.184C94.1197 278.877 93.3744 279.389 92.4384 279.718ZM85.7304 278.522H89.3964C90.3671 278.522 91.1211 278.305 91.6584 277.872C92.2131 277.421 92.4904 276.78 92.4904 275.948C92.4904 275.133 92.2131 274.501 91.6584 274.05C91.1211 273.582 90.3671 273.348 89.3964 273.348H85.7304V278.522ZM89.7344 286.582C90.7397 286.582 91.5284 286.339 92.1004 285.854C92.6724 285.369 92.9584 284.693 92.9584 283.826C92.9584 282.942 92.6551 282.24 92.0484 281.72C91.4417 281.2 90.6357 280.94 89.6304 280.94H85.7304V286.582H89.7344ZM110.037 285.308H102.471L101.171 289H98.0774L104.551 270.904H107.983L114.457 289H111.337L110.037 285.308ZM109.205 282.89L106.267 274.492L103.303 282.89H109.205ZM126.658 289L122.498 281.772H120.236V289H117.272V270.93H123.512C124.899 270.93 126.069 271.173 127.022 271.658C127.993 272.143 128.712 272.793 129.18 273.608C129.666 274.423 129.908 275.333 129.908 276.338C129.908 277.517 129.562 278.591 128.868 279.562C128.192 280.515 127.144 281.165 125.722 281.512L130.194 289H126.658ZM120.236 279.406H123.512C124.622 279.406 125.454 279.129 126.008 278.574C126.58 278.019 126.866 277.274 126.866 276.338C126.866 275.402 126.589 274.674 126.034 274.154C125.48 273.617 124.639 273.348 123.512 273.348H120.236V279.406ZM145.374 270.93V273.348H140.564V289H137.6V273.348H132.764V270.93H145.374ZM161.032 270.93C162.956 270.93 164.637 271.303 166.076 272.048C167.532 272.776 168.65 273.833 169.43 275.22C170.227 276.589 170.626 278.193 170.626 280.03C170.626 281.867 170.227 283.462 169.43 284.814C168.65 286.166 167.532 287.206 166.076 287.934C164.637 288.645 162.956 289 161.032 289H155.13V270.93H161.032ZM161.032 286.582C163.146 286.582 164.767 286.01 165.894 284.866C167.02 283.722 167.584 282.11 167.584 280.03C167.584 277.933 167.02 276.295 165.894 275.116C164.767 273.937 163.146 273.348 161.032 273.348H158.094V286.582H161.032ZM181.805 289.182C180.124 289.182 178.573 288.792 177.151 288.012C175.747 287.215 174.629 286.114 173.797 284.71C172.983 283.289 172.575 281.694 172.575 279.926C172.575 278.158 172.983 276.572 173.797 275.168C174.629 273.764 175.747 272.672 177.151 271.892C178.573 271.095 180.124 270.696 181.805 270.696C183.504 270.696 185.055 271.095 186.459 271.892C187.881 272.672 188.999 273.764 189.813 275.168C190.628 276.572 191.035 278.158 191.035 279.926C191.035 281.694 190.628 283.289 189.813 284.71C188.999 286.114 187.881 287.215 186.459 288.012C185.055 288.792 183.504 289.182 181.805 289.182ZM181.805 286.608C183.001 286.608 184.067 286.339 185.003 285.802C185.939 285.247 186.667 284.467 187.187 283.462C187.725 282.439 187.993 281.261 187.993 279.926C187.993 278.591 187.725 277.421 187.187 276.416C186.667 275.411 185.939 274.639 185.003 274.102C184.067 273.565 183.001 273.296 181.805 273.296C180.609 273.296 179.543 273.565 178.607 274.102C177.671 274.639 176.935 275.411 176.397 276.416C175.877 277.421 175.617 278.591 175.617 279.926C175.617 281.261 175.877 282.439 176.397 283.462C176.935 284.467 177.671 285.247 178.607 285.802C179.543 286.339 180.609 286.608 181.805 286.608ZM196.916 273.322V278.626H203.156V281.044H196.916V286.582H203.936V289H193.952V270.904H203.936V273.322H196.916Z" fill="white"/>
<path d="M446.388 284.97C448.052 283.531 449.361 282.353 450.314 281.434C451.285 280.498 452.091 279.527 452.732 278.522C453.373 277.517 453.694 276.511 453.694 275.506C453.694 274.466 453.443 273.651 452.94 273.062C452.455 272.473 451.683 272.178 450.626 272.178C449.603 272.178 448.806 272.507 448.234 273.166C447.679 273.807 447.385 274.674 447.35 275.766H444.49C444.542 273.79 445.131 272.282 446.258 271.242C447.402 270.185 448.849 269.656 450.6 269.656C452.489 269.656 453.963 270.176 455.02 271.216C456.095 272.256 456.632 273.643 456.632 275.376C456.632 276.624 456.311 277.829 455.67 278.99C455.046 280.134 454.292 281.165 453.408 282.084C452.541 282.985 451.432 284.034 450.08 285.23L448.91 286.27H457.152V288.74H444.516V286.582L446.388 284.97ZM462.304 274.726C462.408 273.114 463.023 271.857 464.15 270.956C465.294 270.055 466.75 269.604 468.518 269.604C469.731 269.604 470.78 269.821 471.664 270.254C472.548 270.687 473.215 271.277 473.666 272.022C474.116 272.767 474.342 273.608 474.342 274.544C474.342 275.619 474.056 276.537 473.484 277.3C472.912 278.063 472.227 278.574 471.43 278.834V278.938C472.452 279.25 473.25 279.822 473.822 280.654C474.394 281.469 474.68 282.517 474.68 283.8C474.68 284.823 474.446 285.733 473.978 286.53C473.51 287.327 472.816 287.96 471.898 288.428C470.979 288.879 469.878 289.104 468.596 289.104C466.724 289.104 465.181 288.627 463.968 287.674C462.772 286.703 462.13 285.317 462.044 283.514H464.904C464.973 284.433 465.328 285.187 465.97 285.776C466.611 286.348 467.478 286.634 468.57 286.634C469.627 286.634 470.442 286.348 471.014 285.776C471.586 285.187 471.872 284.433 471.872 283.514C471.872 282.301 471.482 281.443 470.702 280.94C469.939 280.42 468.76 280.16 467.166 280.16H466.49V277.716H467.192C468.596 277.699 469.662 277.465 470.39 277.014C471.135 276.563 471.508 275.853 471.508 274.882C471.508 274.05 471.239 273.391 470.702 272.906C470.164 272.403 469.402 272.152 468.414 272.152C467.443 272.152 466.689 272.403 466.152 272.906C465.614 273.391 465.294 273.998 465.19 274.726H462.304ZM490.403 264.456L483.331 293.55H480.419L487.465 264.456H490.403ZM497.987 284.97C499.651 283.531 500.959 282.353 501.913 281.434C502.883 280.498 503.689 279.527 504.331 278.522C504.972 277.517 505.293 276.511 505.293 275.506C505.293 274.466 505.041 273.651 504.539 273.062C504.053 272.473 503.282 272.178 502.225 272.178C501.202 272.178 500.405 272.507 499.833 273.166C499.278 273.807 498.983 274.674 498.949 275.766H496.089C496.141 273.79 496.73 272.282 497.857 271.242C499.001 270.185 500.448 269.656 502.199 269.656C504.088 269.656 505.561 270.176 506.619 271.216C507.693 272.256 508.231 273.643 508.231 275.376C508.231 276.624 507.91 277.829 507.269 278.99C506.645 280.134 505.891 281.165 505.007 282.084C504.14 282.985 503.031 284.034 501.679 285.23L500.509 286.27H508.751V288.74H496.115V286.582L497.987 284.97ZM526.175 272.594H517.465V277.768C517.829 277.283 518.366 276.875 519.077 276.546C519.805 276.217 520.576 276.052 521.391 276.052C522.847 276.052 524.025 276.364 524.927 276.988C525.845 277.612 526.495 278.401 526.877 279.354C527.275 280.307 527.475 281.313 527.475 282.37C527.475 283.653 527.223 284.797 526.721 285.802C526.235 286.79 525.499 287.57 524.511 288.142C523.54 288.714 522.344 289 520.923 289C519.033 289 517.517 288.532 516.373 287.596C515.229 286.66 514.544 285.421 514.319 283.878H517.205C517.395 284.693 517.82 285.343 518.479 285.828C519.137 286.296 519.961 286.53 520.949 286.53C522.179 286.53 523.098 286.157 523.705 285.412C524.329 284.667 524.641 283.679 524.641 282.448C524.641 281.2 524.329 280.247 523.705 279.588C523.081 278.912 522.162 278.574 520.949 278.574C520.099 278.574 519.38 278.791 518.791 279.224C518.219 279.64 517.803 280.212 517.543 280.94H514.735V269.994H526.175V272.594Z" fill="white"/>
<path d="M234.27 262C235.003 262 235.517 262.11 235.81 262.33C236.177 262.55 236.507 262.917 236.8 263.43L269.03 322.61C269.25 323.123 269.69 323.38 270.35 323.38H270.9C271.413 323.38 271.817 323.123 272.11 322.61L303.9 263.43C304.34 262.477 305.183 262 306.43 262H320.84C321.72 262 322.233 262.257 322.38 262.77C322.6 263.21 322.527 263.797 322.16 264.53L286.08 330.64C284.247 334.013 282.45 336.25 280.69 337.35C278.93 338.45 276.877 339 274.53 339H268.15C265.29 339 262.907 338.45 261 337.35C259.167 336.25 257.333 334.013 255.5 330.64L218.98 264.53C218.613 263.797 218.503 263.21 218.65 262.77C218.87 262.257 219.457 262 220.41 262H234.27ZM345.877 262C347.49 262 348.297 262.807 348.297 264.42V336.58C348.297 338.193 347.49 339 345.877 339H333.997C332.31 339 331.467 338.193 331.467 336.58V264.42C331.467 262.807 332.31 262 333.997 262H345.877ZM439.392 262C441.005 262 441.812 262.807 441.812 264.42V274.87C441.812 276.483 441.005 277.29 439.392 277.29H384.282C382.155 277.29 380.652 277.84 379.772 278.94C378.892 280.04 378.452 281.543 378.452 283.45V287.19C378.452 291.297 380.358 293.35 384.172 293.35H425.422C431.802 293.35 436.605 295 439.832 298.3C443.058 301.527 444.672 306.183 444.672 312.27V321.07C444.672 326.423 443.095 330.75 439.942 334.05C436.788 337.35 431.875 339 425.202 339H364.262C362.575 339 361.732 338.193 361.732 336.58V326.13C361.732 324.517 362.575 323.71 364.262 323.71H422.012C424.138 323.71 425.642 323.16 426.522 322.06C427.402 320.96 427.842 319.457 427.842 317.55V313.04C427.842 308.933 425.935 306.88 422.122 306.88H380.872C374.492 306.88 369.688 305.267 366.462 302.04C363.235 298.74 361.622 294.047 361.622 287.96V279.93C361.622 274.577 363.198 270.25 366.352 266.95C369.505 263.65 374.418 262 381.092 262H439.392ZM504.164 262C506.951 262 509.298 262.587 511.204 263.76C513.111 264.86 514.981 267.06 516.814 270.36L553.224 336.47C553.591 337.203 553.664 337.827 553.444 338.34C553.298 338.78 552.784 339 551.904 339H537.934C536.688 339 535.844 338.523 535.404 337.57L527.594 323.38H475.894L468.304 337.57C467.791 338.523 466.948 339 465.774 339H451.474C450.521 339 449.934 338.78 449.714 338.34C449.568 337.827 449.678 337.203 450.044 336.47L486.124 270.36C487.958 267.06 489.754 264.86 491.514 263.76C493.274 262.587 495.328 262 497.674 262H504.164ZM482.824 310.62H520.664L503.174 278.39C502.881 277.877 502.478 277.62 501.964 277.62H501.304C500.791 277.62 500.388 277.877 500.094 278.39L482.824 310.62Z" fill="white" fill-opacity="0.08"/>
<path d="M44 106.754L44 57.8987C44 51.8798 48.8798 47 54.8986 47L120.101 47C126.12 47 131 51.8798 131 57.8987L131 106.754C131 112.773 126.12 117.653 120.101 117.653L54.8986 117.653C48.8798 117.653 44 112.773 44 106.754Z" fill="#FFCC3B"/>
<path d="M44 106.754L44 57.8987C44 51.8798 48.8798 47 54.8986 47L120.101 47C126.12 47 131 51.8798 131 57.8987L131 106.754C131 112.773 126.12 117.653 120.101 117.653L54.8986 117.653C48.8798 117.653 44 112.773 44 106.754Z" fill="#FFCC3B"/>
<path d="M131 106.754L131 103.236L44 103.236L44 106.754C44 112.773 48.8798 117.653 54.8986 117.653L120.101 117.653C126.12 117.653 131 112.773 131 106.754V106.754Z" fill="#EFB525"/>
<path d="M101.534 76.0916L101.534 88.5623C101.534 91.3109 103.762 93.539 106.51 93.539L131 93.539L131 71.1148L106.51 71.1148C103.763 71.1148 101.534 73.3429 101.534 76.0916Z" fill="#FFD876"/>
<path d="M73.4658 88.5623L73.4658 76.0916C73.4658 73.3429 71.2377 71.1148 68.49 71.1148L44.0005 71.1148L44.0005 93.539L68.49 93.539C71.2377 93.539 73.4658 91.3109 73.4658 88.5623Z" fill="#FFD876"/>
<path d="M95.8716 117.653L95.8716 113.147C95.8716 112.835 96.0524 112.553 96.332 112.429C102.708 109.582 106.828 103.234 106.828 96.2548L106.828 95.401L131 95.401L131 91.6771L106.51 91.6771C104.794 91.6771 103.396 90.2793 103.396 88.5623L103.396 76.0916C103.396 74.3737 104.794 72.9759 106.51 72.9759L131 72.9759L131 69.252L106.829 69.252L106.829 68.3982C106.829 61.4192 102.708 55.0709 96.332 52.2243C96.0524 52.1001 95.8716 51.8177 95.8716 51.5061L95.8716 47L92.1478 47L92.1478 51.5061C92.1478 53.2852 93.1945 54.9015 94.8136 55.6254C99.8497 57.8732 103.105 62.8877 103.105 68.3982L103.105 70.1651C101.056 71.3474 99.6718 73.5595 99.6718 76.0907L99.6718 88.5614C99.6718 91.0926 101.056 93.3056 103.105 94.4879L103.105 96.2539C103.105 101.765 99.8497 106.779 94.8136 109.028C93.1945 109.751 92.1478 111.368 92.1478 113.146L92.1478 117.652L95.8716 117.652L95.8716 117.653Z" fill="#EFB525"/>
<path d="M96.3322 112.428C100.473 110.579 103.661 107.252 105.389 103.236L101.23 103.236C99.7821 105.745 97.5644 107.8 94.8129 109.027C93.1938 109.75 92.148 111.368 92.148 113.147L92.148 117.653L95.8719 117.653L95.8719 113.147C95.8719 112.835 96.0526 112.553 96.3322 112.428V112.428Z" fill="#E59D0E"/>
<path d="M82.8525 117.653L82.8525 113.147C82.8525 111.368 81.8058 109.752 80.1867 109.028C75.1506 106.78 71.8955 101.765 71.8955 96.2548L71.8955 94.4879C73.9448 93.3056 75.3285 91.0926 75.3285 88.5623L75.3285 76.0916C75.3285 73.5604 73.9448 71.3474 71.8955 70.1651L71.8955 68.3982C71.8955 62.8877 75.1506 57.8732 80.1867 55.6254C81.8058 54.9015 82.8525 53.2852 82.8525 51.5061L82.8525 47L79.1287 47L79.1287 51.5061C79.1287 51.8177 78.9479 52.1001 78.6684 52.2244C72.2918 55.0709 68.1716 61.4202 68.1716 68.3982L68.1716 69.252L44.0003 69.252L44.0003 72.9758L68.4898 72.9759C70.2068 72.9759 71.6047 74.3737 71.6047 76.0916L71.6046 88.5623C71.6046 90.2793 70.2068 91.6771 68.4898 91.6771L44.0003 91.6771L44.0003 95.401L68.1716 95.401L68.1716 96.2548C68.1716 103.233 72.2918 109.582 78.6683 112.429C78.9479 112.553 79.1287 112.835 79.1287 113.147L79.1287 117.653L82.8525 117.653Z" fill="#EFB525"/>
<path d="M80.1867 109.027C77.4352 107.8 75.2175 105.745 73.7697 103.236L69.6119 103.236C71.3392 107.253 74.5265 110.58 78.6684 112.428C78.9479 112.553 79.1287 112.835 79.1287 113.147L79.1287 117.653L82.8525 117.653L82.8525 113.147C82.8525 111.368 81.8058 109.751 80.1867 109.027V109.027Z" fill="#E59D0E"/>
<defs>
<linearGradient id="paint0_linear_595_9258" x1="0" y1="170" x2="570" y2="170" gradientUnits="userSpaceOnUse">
<stop stop-color="#A61CF2"/>
<stop offset="1" stop-color="#3E2CA3"/>
</linearGradient>
</defs>
</svg>
