<svg width="65" height="65" viewBox="0 0 65 65" fill="none" xmlns="http://www.w3.org/2000/svg">
<path d="M34.4504 22.3438H28.0566C27.7061 22.3438 27.4219 22.628 27.4219 22.9785V29.834C27.4219 30.1845 27.7061 30.4688 28.0566 30.4688H34.5313C36.7479 30.4688 38.5555 28.6843 38.5931 26.4766C38.632 24.2039 36.7234 22.3438 34.4504 22.3438Z" fill="white"/>
<path d="M34.4504 34.5312H28.0566C27.7061 34.5312 27.4219 34.8155 27.4219 35.166V42.0215C27.4219 42.372 27.7061 42.6562 28.0566 42.6562H34.5313C36.7479 42.6562 38.5555 40.8718 38.5931 38.6641C38.632 36.3914 36.7234 34.5312 34.4504 34.5312Z" fill="white"/>
<path d="M55.4811 9.51895C49.3426 3.38051 41.1811 0 32.5 0C23.8189 0 15.6574 3.38051 9.51895 9.51895C3.38051 15.6574 0 23.8189 0 32.5C0 41.1811 3.38064 49.3425 9.51895 55.4811C15.6573 61.6196 23.8189 65 32.5 65C41.1811 65 49.3426 61.6195 55.4811 55.4811C61.6195 49.3426 65 41.1811 65 32.5C65 23.8189 61.6194 15.6575 55.4811 9.51895ZM42.6562 38.5938C42.6562 41.8547 40.7244 44.6714 37.9458 45.9638C37.7218 46.0679 37.5781 46.2914 37.5781 46.5383V48.6926C37.5781 49.7864 36.7376 50.7275 35.645 50.779C34.4784 50.8338 33.5156 49.9044 33.5156 48.75V47.3535C33.5156 47.003 33.2314 46.7188 32.8809 46.7188H30.0879C29.7374 46.7188 29.4531 47.003 29.4531 47.3535V48.6926C29.4531 49.7864 28.6126 50.7275 27.52 50.779C26.3534 50.8338 25.3906 49.9044 25.3906 48.75V47.3535C25.3906 47.003 25.1064 46.7188 24.7559 46.7188H21.3855C20.2918 46.7188 19.3507 45.8782 19.2992 44.7858C19.2442 43.6193 20.1736 42.6562 21.3281 42.6562H22.7246C23.0751 42.6562 23.3594 42.372 23.3594 42.0215V32.5V22.9785C23.3594 22.628 23.0751 22.3438 22.7246 22.3438H21.3855C20.2918 22.3438 19.3507 21.5032 19.2992 20.4108C19.2442 19.2443 20.1736 18.2812 21.3281 18.2812H24.7559C25.1064 18.2812 25.3906 17.997 25.3906 17.6465V16.3074C25.3906 15.2136 26.2312 14.2725 27.3237 14.221C28.4903 14.1662 29.4531 15.0956 29.4531 16.25V17.6465C29.4531 17.997 29.7374 18.2812 30.0879 18.2812H32.8809C33.2314 18.2812 33.5156 17.997 33.5156 17.6465V16.3074C33.5156 15.2136 34.3562 14.2725 35.4487 14.221C36.6153 14.1662 37.5781 15.0956 37.5781 16.25V18.4617C37.5781 18.7086 37.7218 18.9321 37.9458 19.0362C40.7244 20.3286 42.6562 23.1453 42.6562 26.4062C42.6562 28.6005 41.7808 30.5933 40.362 32.0564C40.1215 32.3044 40.1215 32.6955 40.362 32.9434C41.7808 34.4067 42.6562 36.3995 42.6562 38.5938Z" fill="white"/>
</svg>
