<svg width="70" height="70" viewBox="0 0 70 70" fill="none" xmlns="http://www.w3.org/2000/svg">
<path d="M68.9412 16.1679C68.9363 16.1384 68.9374 16.1072 68.9298 16.0782C68.9085 15.9985 68.8771 15.9218 68.8362 15.8502C68.8226 15.8256 68.8018 15.8059 68.7854 15.7829C68.756 15.7367 68.7227 15.6932 68.6859 15.6528C68.6634 15.6298 68.635 15.6139 68.6104 15.5932C68.5739 15.5595 68.5347 15.5288 68.4934 15.5013L68.4862 15.4985L68.4802 15.4942L60.4844 10.913C60.3395 10.8301 60.1755 10.7864 60.0086 10.7864C59.8417 10.7864 59.6777 10.8301 59.5328 10.913L51.5326 15.4936L51.5266 15.498L51.5194 15.5007C51.4779 15.5284 51.4385 15.5593 51.4019 15.5932C51.3773 15.6134 51.3472 15.6298 51.3269 15.6522C51.2896 15.6931 51.256 15.7372 51.2263 15.784C51.2105 15.807 51.1902 15.8261 51.1766 15.8502C51.1357 15.9219 51.1043 15.9985 51.083 16.0782C51.0754 16.1061 51.0765 16.1362 51.0716 16.1646C51.0601 16.217 51.0532 16.2702 51.0508 16.3238V18.2734L43.9354 13.8175C43.9457 13.7696 43.9523 13.7209 43.9551 13.672V5.67339C43.9525 5.62076 43.9456 5.56844 43.9343 5.51698C43.9294 5.48745 43.9305 5.45628 43.9228 5.42729C43.9016 5.34775 43.8701 5.27129 43.8293 5.19979C43.8102 5.17138 43.7895 5.14399 43.7675 5.11776C43.7411 5.0771 43.7117 5.03853 43.6794 5.00237C43.6506 4.97691 43.6203 4.95317 43.5887 4.93128C43.5563 4.90213 43.5219 4.87527 43.4858 4.85089H43.4804L43.4766 4.84268L35.4758 0.26206C35.3309 0.179127 35.1669 0.135498 35 0.135498C34.8331 0.135498 34.6691 0.179127 34.5242 0.26206L26.5234 4.84268L26.5169 4.84761H26.5114C26.4751 4.87214 26.4406 4.89919 26.408 4.92854C26.3766 4.95027 26.3465 4.97383 26.3178 4.99909C26.2851 5.03574 26.2553 5.07486 26.2287 5.11612C26.2071 5.14185 26.1868 5.16868 26.168 5.19651C26.1271 5.26818 26.0957 5.34483 26.0744 5.42456C26.0668 5.45245 26.0679 5.48253 26.063 5.51097C26.0515 5.56332 26.0446 5.61656 26.0422 5.67011V13.672C26.0449 13.7211 26.0515 13.7699 26.0619 13.818L18.9481 18.2734V16.3243C18.9456 16.2717 18.9386 16.2194 18.9273 16.1679C18.9224 16.1384 18.9235 16.1072 18.9159 16.0782C18.8946 15.9985 18.8632 15.9218 18.8223 15.8502C18.8087 15.8256 18.7879 15.8059 18.7715 15.7829C18.7421 15.7367 18.7088 15.6932 18.6719 15.6528C18.6495 15.6298 18.6211 15.6139 18.5965 15.5932C18.56 15.5595 18.5208 15.5288 18.4794 15.5013L18.4723 15.4985L18.4663 15.4942L10.4694 10.913C10.3245 10.8301 10.1605 10.7864 9.99359 10.7864C9.82667 10.7864 9.66266 10.8301 9.51781 10.913L1.51921 15.4936L1.5132 15.498L1.50609 15.5007C1.46451 15.5284 1.42519 15.5593 1.38851 15.5932C1.3639 15.6134 1.33382 15.6298 1.31359 15.6522C1.27626 15.6931 1.24259 15.7372 1.21296 15.784C1.1971 15.807 1.17687 15.8261 1.1632 15.8502C1.12234 15.9219 1.09091 15.9985 1.06968 16.0782C1.06202 16.1061 1.06312 16.1362 1.0582 16.1646C1.04674 16.217 1.03979 16.2702 1.03741 16.3238V24.3224C1.03739 24.4942 1.08364 24.6629 1.1713 24.8107C1.25897 24.9585 1.38481 25.08 1.53562 25.1624L9.03601 29.2579V40.2162L1.51921 44.5212L1.5132 44.5256L1.50609 44.5283C1.46451 44.556 1.42519 44.5869 1.38851 44.6207C1.3639 44.641 1.33382 44.6574 1.31359 44.6798C1.27626 44.7207 1.24259 44.7648 1.21296 44.8116C1.1971 44.8346 1.17687 44.8537 1.1632 44.8778C1.12234 44.9494 1.09091 45.0261 1.06968 45.1058C1.06202 45.1337 1.06312 45.1638 1.0582 45.1922C1.04674 45.2446 1.03979 45.2978 1.03741 45.3514V53.3499C1.0375 53.5219 1.08391 53.6907 1.17177 53.8385C1.25963 53.9863 1.3857 54.1077 1.53671 54.1899L9.53476 58.5557C9.57972 58.5775 9.62635 58.5958 9.67421 58.6103C9.69991 58.6196 9.72398 58.6333 9.75023 58.6399C9.90939 58.6832 10.0772 58.6832 10.2364 58.6399C10.2626 58.6328 10.2867 58.6191 10.3124 58.6103C10.3603 58.5958 10.4069 58.5775 10.4519 58.5557L17.243 54.8484L26.0476 60.7103V64.6768C26.0476 64.8487 26.0939 65.0173 26.1815 65.1652C26.2692 65.313 26.395 65.4344 26.5459 65.5168L34.5439 69.8825C34.5889 69.9044 34.6355 69.9227 34.6834 69.9372C34.7091 69.9465 34.7331 69.9602 34.7594 69.9668C34.9185 70.0101 35.0864 70.0101 35.2455 69.9668C35.2718 69.9596 35.2959 69.946 35.3216 69.9372C35.3694 69.9227 35.416 69.9044 35.461 69.8825L43.4569 65.5157C43.6077 65.4333 43.7335 65.3119 43.8212 65.1641C43.9088 65.0163 43.9551 64.8476 43.9551 64.6757V60.7092L52.7598 54.8473L59.5508 58.5546C59.5958 58.5765 59.6424 58.5947 59.6903 58.6092C59.716 58.6185 59.7401 58.6322 59.7663 58.6388C59.9255 58.6821 60.0933 58.6821 60.2525 58.6388C60.2787 58.6317 60.3028 58.618 60.3285 58.6092C60.3764 58.5947 60.423 58.5765 60.468 58.5546L68.4633 54.1899C68.6141 54.1076 68.7399 53.9861 68.8276 53.8383C68.9153 53.6905 68.9615 53.5218 68.9615 53.3499V45.3519C68.9589 45.2993 68.952 45.247 68.9407 45.1955C68.9358 45.166 68.9369 45.1348 68.9292 45.1058C68.908 45.0261 68.8766 44.9494 68.8357 44.8778C68.822 44.8531 68.8012 44.8335 68.7848 44.8105C68.7555 44.7643 68.7222 44.7208 68.6853 44.6803C68.6629 44.6574 68.6344 44.6415 68.6098 44.6207C68.5733 44.5871 68.5342 44.5563 68.4928 44.5289L68.4857 44.5261L68.4797 44.5217L60.9629 40.2167V29.2579L68.4627 25.164C68.6135 25.0816 68.7394 24.9601 68.827 24.8123C68.9147 24.6645 68.961 24.4959 68.9609 24.324V16.3243C68.9588 16.2717 68.9522 16.2194 68.9412 16.1679ZM40.7925 56.7925L35 59.9546L29.2075 56.7925L28.9625 56.6585L35 53.2012L41.0375 56.6564L40.7925 56.7925ZM17.0341 23.7547L10.9501 27.0753V21.2582L17.0341 17.9376V23.7547ZM9.99304 41.8738L16.0305 45.3311L15.7855 45.4651L9.99304 48.6271L4.20054 45.4651L3.95554 45.3311L9.99304 41.8738ZM17.9107 44.2024L10.9501 40.2157V29.2579L17.2905 25.7967L26.0449 31.493V38.4755L17.9107 44.2024ZM27.959 13.1038V7.28667L34.043 10.6095V16.425L27.959 13.1038ZM42.041 13.1038L35.957 16.425V10.6095L42.041 7.28776V13.1038ZM35 27.4959L41.0375 30.9532L40.7925 31.0872L35 34.2492L29.2075 31.0872L28.9625 30.9532L35 27.4959ZM27.959 32.5867L34.043 35.9079V41.7267L27.959 38.4044V32.5867ZM35.957 35.9079L42.041 32.5867V38.4044L35.957 41.7267V35.9079ZM43.9551 31.493L52.7094 25.7951L59.0499 29.2579V40.2162L52.0893 44.2029L43.9551 38.4755V31.493ZM59.0488 21.2582V27.0753L52.9659 23.7547V17.9376L59.0488 21.2582ZM52.9659 52.7823V46.9646L59.0499 50.2858V56.1029L52.9659 52.7823ZM65.7994 45.4651L60.0069 48.6271L54.2139 45.4651L53.9689 45.3311L60.0064 41.8738L66.0439 45.3311L65.7994 45.4651ZM60.0069 12.8462L66.0444 16.3035L65.7994 16.4375L60.0069 19.5996L54.2139 16.4375L53.9689 16.3035L60.0069 12.8462ZM51.0852 24.5679L42.9663 29.8524L35.957 25.8383V18.6059L42.3773 15.1004L51.0513 20.532V24.3218C51.0519 24.405 51.0633 24.4877 51.0852 24.5679ZM35 2.19581L41.0369 5.6537L35.2647 8.80479L35 8.94917L34.7353 8.80479L28.963 5.65315L35 2.19581ZM27.6226 15.1021L34.043 18.6075V25.8383L27.0337 29.8524L18.9148 24.5679C18.9365 24.4877 18.9478 24.405 18.9481 24.3218V20.532L27.6226 15.1021ZM9.99304 12.8462L16.0305 16.3035L15.7855 16.4375L9.99304 19.5996L4.20054 16.4375L3.95554 16.3035L9.99304 12.8462ZM2.95312 17.9376L9.0371 21.2588V27.0753L2.95312 23.7547V17.9376ZM2.95312 46.9652L9.0371 50.2864V56.1035L2.95312 52.7823V46.9652ZM10.9512 50.2864L17.0351 46.9652V52.7823L10.9512 56.1029V50.2864ZM18.8951 53.6485C18.9293 53.5524 18.9478 53.4514 18.9498 53.3494V45.8135L27.0659 40.0975L34.043 43.906V51.5436L26.5234 55.8486L26.5174 55.853L26.5103 55.8557C26.4687 55.8834 26.4294 55.9143 26.3927 55.9482C26.3681 55.9684 26.338 55.9848 26.3178 56.0072C26.2805 56.0481 26.2468 56.0922 26.2172 56.139C26.2013 56.162 26.1811 56.1811 26.1674 56.2052C26.1266 56.2769 26.0951 56.3535 26.0739 56.4332C26.0662 56.4611 26.0673 56.4912 26.0624 56.5196C26.051 56.572 26.044 56.6252 26.0416 56.6788V58.4102L18.8951 53.6485ZM27.959 60.193V58.2915L34.043 61.6127V67.4298L27.959 64.1092V60.193ZM35.957 67.4298V61.6132L42.041 58.2921V64.1097L35.957 67.4298ZM43.9551 56.6788C43.9525 56.6262 43.9456 56.5738 43.9343 56.5224C43.9294 56.4928 43.9305 56.4617 43.9228 56.4327C43.9016 56.353 43.8702 56.2763 43.8293 56.2046C43.8156 56.18 43.7948 56.1603 43.7784 56.1374C43.7491 56.0912 43.7158 56.0477 43.6789 56.0072C43.6565 55.9842 43.628 55.9684 43.6034 55.9476C43.5669 55.9139 43.5278 55.8832 43.4864 55.8557L43.4793 55.853L43.4733 55.8486L35.957 51.5436V43.906L42.9341 40.0975L51.0519 45.8135V53.3499C51.0539 53.452 51.0723 53.553 51.1066 53.6491L43.9567 58.4107L43.9551 56.6788ZM60.9629 56.1024V50.2858L67.0469 46.9646V52.7823L60.9629 56.1024ZM60.9629 27.0748V21.2582L67.0469 17.9376V23.7547L60.9629 27.0748Z" fill="#8F94C1"/>
</svg>
