<svg width="60" height="60" viewBox="0 0 60 60" fill="none" xmlns="http://www.w3.org/2000/svg">
<path d="M60 30C60 40.298 54.8106 49.3849 46.9041 54.7874C42.0906 58.0764 36.2706 60 30 60C27.2657 60 24.6184 59.6339 22.1009 58.9494C20.9388 58.6335 19.8049 58.2478 18.7029 57.7996C7.73391 53.3375 0 42.5719 0 30C0 13.4314 13.4314 0 30 0C46.5686 0 60 13.4314 60 30Z" fill="#374266"/>
<path d="M49.2793 3.11499H10.7199C8.48563 3.11499 6.67438 4.92624 6.67438 7.16054V27.3536C6.67438 29.5879 8.48563 31.3991 10.7199 31.3991H49.2793C51.5136 31.3991 53.3248 29.5879 53.3248 27.3536V7.16054C53.3248 4.92624 51.5136 3.11499 49.2793 3.11499Z" fill="#FFE261"/>
<path d="M47.76 42.5498V49.5588C47.76 51.2804 47.4685 53.0768 46.9041 54.7874C42.0906 58.0764 36.2706 60 30 60C26.0033 60 22.1902 59.2188 18.7029 57.7996C16.9984 54.0012 16.9775 49.7656 16.9775 49.7656C16.9775 49.7265 16.9751 46.1313 16.0849 44.5248C15.1555 42.8497 15.7593 40.7387 17.4355 39.8081C19.1119 38.8787 21.2229 39.4836 22.1522 41.1587C23.3106 43.2477 23.4526 44.2812 23.4526 44.2812V27.9808C23.4526 27.1433 23.7918 26.3829 24.3428 25.833C24.8926 25.282 25.6529 24.9429 26.4905 24.9429C28.168 24.9429 29.5271 26.302 29.5284 27.9784V38.7368C29.5284 37.0592 30.8889 35.6988 32.5676 35.6988C33.4064 35.6988 34.1655 36.0392 34.7154 36.589C35.2652 37.1388 35.6055 37.8979 35.6055 38.7368V39.5119C35.6055 38.673 35.946 37.9127 36.4957 37.3629C37.0455 36.813 37.8047 36.4727 38.6447 36.4727C39.4835 36.4727 40.2427 36.8131 40.7925 37.3629C41.3423 37.9127 41.6826 38.673 41.6826 39.5119V42.5498C41.6826 40.8723 43.0431 39.5119 44.7218 39.5119C45.5606 39.5119 46.3198 39.8523 46.8696 40.402C47.4196 40.9519 47.76 41.711 47.76 42.5498Z" fill="#FFDCBF"/>
<path d="M24.9085 49.8768C24.1145 49.9132 23.4525 49.2745 23.4525 48.4798V27.9813C23.4525 27.1425 23.7929 26.3834 24.3427 25.8335C24.8937 25.2825 25.6528 24.9434 26.4917 24.9434C26.9998 24.9434 27.4798 25.0683 27.8998 25.2899C27.6254 25.4319 27.3757 25.6168 27.1589 25.8335C26.6091 26.3834 26.2688 27.1425 26.2688 27.9813V48.4789C26.2688 49.2216 25.6883 49.8387 24.9464 49.875C24.9339 49.8756 24.9212 49.8762 24.9085 49.8768Z" fill="#FCBB8D"/>
<path d="M30.9849 44.861C30.191 44.8975 29.529 44.2588 29.529 43.4641V38.7369C29.529 37.8981 29.8694 37.139 30.4191 36.5891C30.9702 36.0381 31.7293 35.699 32.5681 35.699C33.0763 35.699 33.5563 35.8239 33.9763 36.0455C33.7019 36.1875 33.4522 36.3724 33.2354 36.5891C32.6856 37.139 32.3452 37.8981 32.3452 38.7369V43.4631C32.3452 44.2057 31.7648 44.8228 31.0229 44.8592C31.0104 44.8599 30.9977 44.8605 30.9849 44.861Z" fill="#FCBB8D"/>
<path d="M37.0621 43.799C36.2681 43.8355 35.6061 43.1968 35.6061 42.4022V39.5118C35.6061 38.673 35.9466 37.9139 36.4963 37.364C37.0473 36.813 37.8065 36.4739 38.6453 36.4739C39.1534 36.4739 39.6334 36.5988 40.0534 36.8204C39.7791 36.9624 39.5293 37.1474 39.3125 37.364C38.7627 37.9139 38.4224 38.673 38.4224 39.5118V42.4011C38.4224 43.1437 37.842 43.7608 37.1 43.7972C37.0876 43.7977 37.0749 43.7983 37.0621 43.799Z" fill="#FCBB8D"/>
<path d="M43.1392 45.0006C42.3452 45.037 41.6832 44.3983 41.6832 43.6036V42.5502C41.6832 41.7113 42.0237 40.9522 42.5734 40.4024C43.1244 39.8513 43.8835 39.5122 44.7224 39.5122C45.2305 39.5122 45.7105 39.6371 46.1305 39.8587C45.8562 40.0008 45.6064 40.1857 45.3896 40.4024C44.8398 40.9522 44.4995 41.7113 44.4995 42.5502V43.6026C44.4995 44.3453 43.9191 44.9624 43.1771 44.9987C43.1646 44.9994 43.1518 45 43.1392 45.0006Z" fill="#FCBB8D"/>
<path d="M22.1009 58.9494C20.9388 58.6335 19.8049 58.2478 18.7029 57.7996C16.9984 54.0012 16.9788 49.7657 16.9788 49.7657C16.9788 49.7461 16.9777 46.1338 16.0849 44.5236C15.1555 42.8497 15.7604 40.7376 17.4355 39.8081C18.4249 39.2596 19.5674 39.2448 20.5274 39.671C20.4343 39.7126 20.3425 39.758 20.2519 39.8081C18.5768 40.7376 17.9719 42.8497 18.9013 44.5236C19.7939 46.1338 19.7952 49.7461 19.7952 49.7657C19.7951 49.7657 19.8196 54.9147 22.1009 58.9494Z" fill="#FCBB8D"/>
<path d="M14.4241 10.8358C14.4241 10.2802 15.0002 9.99219 15.5969 9.99219H19.5683C21.7083 9.99219 23.7043 10.6918 23.7043 13.6137C23.7043 15.3011 23.0458 16.4122 21.9552 16.8855C23.2104 17.3793 24.0747 18.1818 24.0747 20.2396V20.6717C24.0747 23.8817 22.2847 25.0339 19.9594 25.0339H15.597C14.8768 25.0339 14.4242 24.643 14.4242 24.2108V10.8358H14.4241ZM17.0785 15.836H19.3831C20.4942 15.836 21.0292 15.1159 21.0292 14.0663C21.0292 12.9964 20.4119 12.3378 19.3625 12.3378H17.0786V15.836H17.0785ZM19.4037 22.6882C20.6588 22.6882 21.3997 22.0092 21.3997 20.4453V20.1161C21.3997 18.511 20.6588 17.9349 19.4037 17.9349H17.0785V22.6882H19.4037Z" fill="#F58D2C"/>
<path d="M33.1284 10.8151C33.1284 10.239 33.7868 9.99194 34.4659 9.99194C35.1243 9.99194 35.8034 10.239 35.8034 10.8151V20.4451C35.8034 23.8814 33.6222 25.1572 30.8648 25.1572C28.0869 25.1572 25.9263 23.8814 25.9263 20.4451V10.8151C25.9263 10.239 26.5848 9.99194 27.2639 9.99194C27.9223 9.99194 28.6014 10.239 28.6014 10.8151V20.4451C28.6014 22.05 29.445 22.8114 30.8647 22.8114C32.2847 22.8114 33.1282 22.0501 33.1282 20.4451V10.8151H33.1284Z" fill="#F58D2C"/>
<path d="M41.5442 19.0046C41.5442 18.9017 41.5236 18.7989 41.4824 18.7371L37.223 11.3705C37.1819 11.2676 37.1613 11.1649 37.1613 11.103C37.1613 10.4446 38.2107 9.99194 38.9308 9.99194C39.3629 9.99194 39.5688 10.1565 39.754 10.5269L42.8816 16.4736L46.03 10.5269C46.2153 10.1771 46.4004 9.99194 46.8325 9.99194C47.5527 9.99194 48.6022 10.4446 48.6022 11.103C48.6022 11.1648 48.6022 11.2675 48.5404 11.3705L44.3016 18.7371C44.2605 18.7988 44.2192 18.9016 44.2192 19.0046V24.19C44.2192 24.7456 43.5609 25.0337 42.8818 25.0337C42.2234 25.0337 41.5443 24.7455 41.5443 24.19L41.5442 19.0046Z" fill="#F58D2C"/>
</svg>
