<svg width="70" height="70" viewBox="0 0 70 70" fill="none" xmlns="http://www.w3.org/2000/svg">
<path d="M35 68.092C30.6524 68.0998 26.3462 67.2486 22.3285 65.5873C18.3109 63.926 14.6611 61.4872 11.5888 58.4112C11.4165 58.2328 11.3211 57.9938 11.3233 57.7458C11.3254 57.4978 11.4249 57.2605 11.6003 57.0851C11.7757 56.9097 12.0129 56.8102 12.261 56.8081C12.509 56.8059 12.7479 56.9013 12.9263 57.0736C18.0697 62.2147 24.8463 65.399 32.0868 66.0773C39.3273 66.7555 46.5774 64.8849 52.5861 60.7885C58.5947 56.692 62.9849 50.6266 64.9991 43.6389C67.0132 36.6512 66.525 29.1796 63.6186 22.5135C63.5682 22.3995 63.5408 22.2767 63.5379 22.1521C63.5351 22.0274 63.5569 21.9035 63.6021 21.7874C63.6473 21.6712 63.7151 21.5651 63.8014 21.4752C63.8877 21.3853 63.991 21.3134 64.1052 21.2635C64.2195 21.2137 64.3424 21.1869 64.4671 21.1847C64.5917 21.1825 64.7155 21.205 64.8314 21.2508C64.9473 21.2967 65.053 21.3649 65.1425 21.4518C65.2319 21.5386 65.3033 21.6422 65.3526 21.7567C67.5514 26.7949 68.4606 32.3014 67.9983 37.7789C67.5359 43.2565 65.7165 48.5327 62.7043 53.131C59.6921 57.7293 55.5821 61.505 50.7452 64.117C45.9083 66.729 40.4971 68.0951 35 68.092Z" fill="#E7E7E7"/>
<path d="M4.74487 46.8782C4.55019 46.8783 4.36024 46.8183 4.20093 46.7064C4.04163 46.5944 3.92073 46.4361 3.85474 46.253C1.29696 39.1711 1.2292 31.4289 3.66262 24.3033C6.09605 17.1778 10.8853 11.0943 17.2406 7.05628C23.5959 3.01825 31.1377 1.26679 38.6221 2.09075C46.1065 2.91472 53.0866 6.2649 58.4112 11.5888C58.5835 11.7672 58.6789 12.0061 58.6767 12.2542C58.6746 12.5022 58.5751 12.7394 58.3997 12.9148C58.2243 13.0902 57.9871 13.1897 57.739 13.1919C57.491 13.194 57.2521 13.0987 57.0737 12.9263C51.2195 7.07219 43.2795 3.78335 35.0005 3.78335C26.7214 3.78335 18.7815 7.07219 12.9273 12.9263C8.7475 17.1285 5.84404 22.429 4.5534 28.2137C3.26275 33.9984 3.63778 40.0304 5.63501 45.6107C5.68667 45.7536 5.70315 45.9068 5.68305 46.0574C5.66295 46.208 5.60687 46.3516 5.51955 46.4759C5.43223 46.6003 5.31624 46.7018 5.18139 46.7718C5.04655 46.8418 4.89682 46.8783 4.74487 46.8782Z" fill="#E7E7E7"/>
<path d="M57.7424 13.2036H51.4689C51.218 13.2036 50.9774 13.104 50.8 12.9266C50.6226 12.7492 50.5229 12.5086 50.5229 12.2577C50.5229 12.0068 50.6226 11.7662 50.8 11.5888C50.9774 11.4114 51.218 11.3117 51.4689 11.3117H56.7965V5.98415C56.7965 5.73327 56.8961 5.49267 57.0735 5.31527C57.2509 5.13787 57.4915 5.03821 57.7424 5.03821C57.9933 5.03821 58.2339 5.13787 58.4113 5.31527C58.5887 5.49267 58.6883 5.73327 58.6883 5.98415V12.2577C58.6883 12.5086 58.5887 12.7492 58.4113 12.9266C58.2339 13.104 57.9933 13.2036 57.7424 13.2036Z" fill="#E7E7E7"/>
<path d="M12.2576 64.9618C12.0067 64.9618 11.7661 64.8621 11.5887 64.6847C11.4113 64.5073 11.3116 64.2667 11.3116 64.0159V57.7423C11.3116 57.4915 11.4113 57.2508 11.5887 57.0734C11.7661 56.896 12.0067 56.7964 12.2576 56.7964H18.5311C18.782 56.7964 19.0226 56.896 19.2 57.0734C19.3774 57.2508 19.4771 57.4915 19.4771 57.7423C19.4771 57.9932 19.3774 58.2338 19.2 58.4112C19.0226 58.5886 18.782 58.6883 18.5311 58.6883H13.2035V64.0159C13.2035 64.2667 13.1039 64.5073 12.9265 64.6847C12.7491 64.8621 12.5085 64.9618 12.2576 64.9618Z" fill="#E7E7E7"/>
<path d="M50.0235 45.3335H29.9051C28.6949 45.3284 27.5225 44.911 26.5812 44.1503C25.6399 43.3896 24.9859 42.3308 24.727 41.1486L20.3984 20.9895H16.1927C15.9418 20.9895 15.7012 20.8899 15.5238 20.7125C15.3464 20.5351 15.2468 20.2945 15.2468 20.0436C15.2468 19.7927 15.3464 19.5521 15.5238 19.3747C15.7012 19.1973 15.9418 19.0977 16.1927 19.0977H21.1637C21.3801 19.0976 21.59 19.1717 21.7583 19.3077C21.9267 19.4437 22.0433 19.6334 22.0888 19.845L26.5773 40.7503C26.7439 41.5102 27.1644 42.1906 27.7695 42.6794C28.3746 43.1683 29.1282 43.4364 29.9061 43.4397H50.0235C50.2744 43.4397 50.515 43.5393 50.6924 43.7167C50.8698 43.8941 50.9695 44.1347 50.9695 44.3856C50.9695 44.6365 50.8698 44.8771 50.6924 45.0545C50.515 45.2319 50.2744 45.3316 50.0235 45.3316V45.3335Z" fill="#E7E7E7"/>
<path d="M45.3893 38.8292H24.9881C24.7372 38.8292 24.4966 38.7296 24.3192 38.5522C24.1418 38.3748 24.0422 38.1342 24.0422 37.8833C24.0422 37.6324 24.1418 37.3918 24.3192 37.2144C24.4966 37.037 24.7372 36.9373 24.9881 36.9373H45.3893C45.8436 36.9397 46.2836 36.7786 46.6289 36.4833C46.9742 36.1881 47.2017 35.7784 47.2699 35.3292L48.7105 26.023H22.2401C21.9893 26.023 21.7487 25.9233 21.5713 25.7459C21.3939 25.5685 21.2942 25.3279 21.2942 25.077C21.2942 24.8262 21.3939 24.5856 21.5713 24.4082C21.7487 24.2308 21.9893 24.1311 22.2401 24.1311H49.8144C49.9509 24.1311 50.0857 24.1607 50.2097 24.2177C50.3336 24.2748 50.4438 24.3579 50.5325 24.4615C50.6213 24.5651 50.6866 24.6867 50.724 24.818C50.7614 24.9492 50.7699 25.0869 50.749 25.2218L49.1409 35.6187C49.0053 36.5151 48.5516 37.3328 47.8628 37.9223C47.1739 38.5118 46.296 38.8337 45.3893 38.8292Z" fill="#E7E7E7"/>
<path d="M45.1169 54.686C44.3527 54.6858 43.6057 54.459 42.9703 54.0343C42.335 53.6096 41.8399 53.006 41.5475 52.2999C41.2552 51.5938 41.1788 50.8169 41.328 50.0674C41.4772 49.3179 41.8453 48.6294 42.3858 48.0891C42.9262 47.5488 43.6148 47.1808 44.3643 47.0318C45.1139 46.8828 45.8908 46.9594 46.5968 47.2519C47.3029 47.5444 47.9063 48.0397 48.3309 48.6751C48.7554 49.3105 48.982 50.0576 48.982 50.8218C48.9808 51.8465 48.5731 52.8287 47.8485 53.5532C47.1239 54.2776 46.1415 54.685 45.1169 54.686ZM45.1169 48.8486C44.7269 48.8488 44.3456 48.9646 44.0214 49.1814C43.6972 49.3983 43.4445 49.7064 43.2954 50.0668C43.1463 50.4272 43.1074 50.8237 43.1836 51.2062C43.2598 51.5888 43.4477 51.9401 43.7236 52.2158C43.9994 52.4916 44.3509 52.6793 44.7334 52.7554C45.116 52.8314 45.5125 52.7923 45.8728 52.643C46.2332 52.4937 46.5411 52.2409 46.7578 51.9165C46.9745 51.5922 47.0901 51.2109 47.0901 50.8209C47.0894 50.2979 46.8812 49.7965 46.5113 49.4268C46.1414 49.057 45.6399 48.8491 45.1169 48.8486Z" fill="#E7E7E7"/>
<path d="M31.9191 54.686C31.1548 54.686 30.4077 54.4594 29.7722 54.0348C29.1368 53.6102 28.6415 53.0067 28.349 52.3006C28.0565 51.5945 27.98 50.8175 28.1291 50.068C28.2782 49.3184 28.6463 48.6298 29.1867 48.0894C29.7271 47.549 30.4156 47.181 31.1652 47.0319C31.9148 46.8828 32.6917 46.9593 33.3978 47.2518C34.1039 47.5443 34.7074 48.0395 35.132 48.675C35.5566 49.3105 35.7832 50.0576 35.7832 50.8218C35.782 51.8463 35.3745 52.8284 34.6501 53.5528C33.9257 54.2772 32.9435 54.6848 31.9191 54.686ZM31.9191 48.8486C31.529 48.8486 31.1477 48.9643 30.8233 49.181C30.499 49.3977 30.2462 49.7057 30.0969 50.0661C29.9476 50.4265 29.9086 50.8231 29.9847 51.2057C30.0608 51.5882 30.2486 51.9397 30.5244 52.2155C30.8003 52.4913 31.1517 52.6792 31.5343 52.7553C31.9169 52.8314 32.3134 52.7923 32.6738 52.643C33.0342 52.4938 33.3422 52.241 33.559 51.9166C33.7757 51.5923 33.8914 51.211 33.8914 50.8209C33.8906 50.298 33.6826 49.7968 33.3129 49.4271C32.9431 49.0574 32.4419 48.8493 31.9191 48.8486Z" fill="#E7E7E7"/>
</svg>
