<svg width="69" height="69" viewBox="0 0 69 69" fill="none" xmlns="http://www.w3.org/2000/svg">
<g clip-path="url(#clip0_299_236)">
<path d="M34.5 4.30737C26.9962 4.30737 20.8915 10.3918 20.8915 17.8706C20.8915 25.3494 26.9962 31.4341 34.5 31.4341C42.0037 31.4341 48.1085 25.3494 48.1085 17.8705C48.1085 10.3918 42.0037 4.30737 34.5 4.30737ZM34.5 29.4125C28.1109 29.4125 22.913 24.2348 22.913 17.8705C22.913 11.5063 28.1107 6.32872 34.5 6.32872C40.8892 6.32872 46.087 11.5063 46.087 17.8705C46.087 24.2348 40.8891 29.4125 34.5 29.4125Z" fill="#8F94C1"/>
<path d="M31.1601 24.8834V25.7502C31.1601 26.3085 31.6125 26.761 32.1708 26.761C32.7292 26.761 33.1816 26.3085 33.1816 25.7502V24.8834H34.8346V25.7502C34.8346 26.3085 35.287 26.761 35.8453 26.761C36.4037 26.761 36.8561 26.3085 36.8561 25.7502V24.8834H36.993C39.2302 24.8834 41.0503 23.0633 41.0503 20.8244C41.0503 19.3086 40.2142 17.9852 38.9796 17.2887C39.5486 16.5899 39.8903 15.6991 39.8903 14.7295C39.8903 12.8456 38.5995 11.2577 36.856 10.8031V9.80542C36.856 9.24709 36.4035 8.79468 35.8452 8.79468C35.2869 8.79468 34.8345 9.24709 34.8345 9.80542V10.6722H33.1814V9.80542C33.1814 9.24709 32.729 8.79468 32.1707 8.79468C31.6124 8.79468 31.16 9.24709 31.16 9.80542V10.6722H28.9604C28.4021 10.6722 27.9497 11.1246 27.9497 11.683C27.9497 12.2413 28.4021 12.6937 28.9604 12.6937H29.7507V17.7779V22.8622H28.9604C28.4021 22.8622 27.9497 23.3146 27.9497 23.8729C27.9497 24.4313 28.4021 24.8837 28.9604 24.8837H31.1601V24.8834ZM37.8688 14.7311C37.8688 15.8537 36.9555 16.7669 35.8329 16.7669H31.7723V12.6934H35.8329C36.9555 12.6934 37.8688 13.6068 37.8688 14.7311ZM36.9929 18.7884C38.1155 18.7884 39.0286 19.7017 39.0286 20.826C39.0286 21.9486 38.1155 22.8618 36.9929 22.8618H31.7723V18.7882H36.9929V18.7884Z" fill="#8F94C1"/>
<path d="M64.5777 33.7335H57.8985V26.1284C57.8985 25.8517 58.124 25.6265 58.4011 25.6265H62.0414C63.3641 25.6265 64.4403 24.5507 64.4403 23.2281V16.4171C66.1325 15.9707 67.3835 14.4315 67.3835 12.6062C67.3835 10.4326 65.6097 8.66422 63.4293 8.66422C61.249 8.66422 59.475 10.4326 59.475 12.6062C59.475 14.4318 60.7265 15.9709 62.4189 16.4173V23.2281C62.4189 23.4359 62.2495 23.605 62.0414 23.605H58.4011C57.0094 23.605 55.8771 24.7369 55.8771 26.1284V33.7335H42.7502C48.4959 30.7526 52.4291 24.7612 52.4291 17.8707C52.4291 14.6888 51.5793 11.5641 49.9716 8.83483C49.6884 8.35385 49.0688 8.19388 48.5877 8.47703C48.1067 8.7603 47.9465 9.37982 48.2299 9.86094C49.6545 12.2796 50.4076 15.0494 50.4076 17.8709C50.4076 26.6101 43.2715 33.72 34.5 33.72C25.7285 33.72 18.5924 26.61 18.5924 17.8709C18.5924 9.13172 25.7285 2.02148 34.5 2.02148C38.7497 2.02148 42.745 3.67048 45.7497 6.66483C46.1451 7.05889 46.7851 7.05781 47.179 6.66227C47.5731 6.26687 47.572 5.62687 47.1765 5.23295C43.7905 1.85842 39.2884 0 34.5 0C24.6139 0 16.5709 8.01667 16.5709 17.8706C16.5709 24.761 20.5042 30.7524 26.2498 33.7333H13.3783V26.1284C13.3783 24.737 12.2462 23.605 10.8543 23.605H7.21414C7.00606 23.605 6.83666 23.4359 6.83666 23.2281V16.4173C8.52918 15.9709 9.78075 14.4318 9.78075 12.6061C9.78075 10.4325 8.00683 8.66408 5.82646 8.66408C3.64608 8.66408 1.87243 10.4326 1.87243 12.6062C1.87243 14.4315 3.12333 15.9704 4.81531 16.417V23.2281C4.81531 24.5505 5.89141 25.6265 7.21427 25.6265H10.8546C11.1316 25.6265 11.3571 25.8517 11.3571 26.1284V33.7335H4.42233C2.72698 33.7335 1.34766 35.1126 1.34766 36.808V65.9253C1.34766 67.6207 2.72698 69 4.42233 69H64.5775C66.2729 69 67.6522 67.6207 67.6522 65.9253V36.808C67.6523 35.1126 66.273 33.7335 64.5777 33.7335ZM61.4964 12.6062C61.4964 11.5473 62.3635 10.6857 63.4292 10.6857C64.4948 10.6857 65.3619 11.5473 65.3619 12.6062C65.3619 13.6652 64.4948 14.5268 63.4292 14.5268C62.3635 14.5268 61.4964 13.6652 61.4964 12.6062ZM3.89392 12.6062C3.89392 11.5473 4.761 10.6857 5.82659 10.6857C6.89232 10.6857 7.7594 11.5473 7.7594 12.6062C7.7594 13.6652 6.89232 14.5268 5.82659 14.5268C4.76087 14.5268 3.89392 13.6652 3.89392 12.6062ZM64.5777 35.7549C65.1585 35.7549 65.6309 36.2274 65.6309 36.808V65.9253C65.6309 66.5062 65.1584 66.9785 64.5777 66.9785H4.42233C3.84149 66.9785 3.36914 66.506 3.36914 65.9253V36.808C3.36914 36.2273 3.84163 35.7549 4.42233 35.7549H64.5777Z" fill="#8F94C1"/>
<path d="M62.4767 37.8962H6.52332C5.96498 37.8962 5.51257 38.3486 5.51257 38.907V63.8264C5.51257 64.3847 5.96498 64.8371 6.52332 64.8371H14.4105C14.9688 64.8371 15.4212 64.3847 15.4212 63.8264C15.4212 63.268 14.9688 62.8156 14.4105 62.8156H7.53406V39.9177H61.4658V62.8156H18.4786C17.9203 62.8156 17.4679 63.268 17.4679 63.8264C17.4679 64.3847 17.9203 64.8371 18.4786 64.8371H62.4767C63.035 64.8371 63.4874 64.3847 63.4874 63.8264V38.907C63.4874 38.3488 63.0349 37.8962 62.4767 37.8962Z" fill="#8F94C1"/>
<path d="M26.103 55.0758C26.3765 53.5851 25.7051 51.6264 22.9998 50.5987C21.487 50.0242 20.0841 49.3967 19.7351 49.2386C19.3356 48.9392 19.1441 48.4551 19.2211 47.9289C19.3144 47.2916 19.7844 46.7824 20.4783 46.5672C22.364 45.9826 24.0694 47.3906 24.1049 47.4204C24.5268 47.7824 25.1628 47.7359 25.5273 47.3147C25.8927 46.8926 25.8466 46.2544 25.4245 45.889C25.3214 45.7998 22.8626 43.7114 19.8794 44.6365C18.4451 45.0815 17.4266 46.231 17.2209 47.6363C17.0277 48.9571 17.5818 50.2301 18.6669 50.9587C18.7118 50.9889 18.7593 51.0154 18.8084 51.038C18.8757 51.0689 20.4774 51.8031 22.2819 52.4885C23.6131 52.9943 24.2811 53.8042 24.1147 54.7108C23.9578 55.5656 23.0312 56.4741 21.6229 56.4741C20.3371 56.4741 19.0935 55.9333 18.2966 55.0276C17.9279 54.6084 17.289 54.5676 16.8701 54.9364C16.451 55.3051 16.4102 55.9439 16.7789 56.3629C17.9539 57.6983 19.7646 58.4956 21.6228 58.4956C23.8553 58.4956 25.7393 57.0573 26.103 55.0758Z" fill="#8F94C1"/>
<path d="M34.0649 46.4336C34.6232 46.4336 35.0756 45.9812 35.0756 45.4229C35.0756 44.8645 34.6232 44.4121 34.0649 44.4121H29.486C28.9276 44.4121 28.4752 44.8645 28.4752 45.4229V57.4748C28.4752 58.0331 28.9276 58.4856 29.486 58.4856H34.0649C34.6232 58.4856 35.0756 58.0331 35.0756 57.4748C35.0756 56.9165 34.6232 56.4641 34.0649 56.4641H30.4967V52.4595H33.7272C34.2855 52.4595 34.7379 52.0071 34.7379 51.4488C34.7379 50.8904 34.2855 50.438 33.7272 50.438H30.4967V46.4336H34.0649Z" fill="#8F94C1"/>
<path d="M38.9912 44.4121C38.4329 44.4121 37.9805 44.8645 37.9805 45.4229V57.4646C37.9805 57.9575 38.3363 58.3787 38.8224 58.4612C38.8926 58.473 38.9687 58.4861 40.3091 58.4861C40.9564 58.4861 41.8985 58.4831 43.2768 58.4754C43.8351 58.4723 44.2849 58.0174 44.282 57.4592C44.279 56.9027 43.827 56.454 43.2714 56.454C43.2695 56.454 43.2676 56.454 43.2657 56.454C42.2969 56.4593 40.9132 56.4678 40.002 56.4641V45.4229C40.002 44.8645 39.5495 44.4121 38.9912 44.4121Z" fill="#8F94C1"/>
<path d="M47.1823 44.4121C46.6239 44.4121 46.1715 44.8645 46.1715 45.4229V57.4646C46.1715 57.9575 46.5273 58.3787 47.0133 58.4612C47.0833 58.473 47.1596 58.4861 48.5008 58.4861C49.148 58.4861 50.09 58.4831 51.4677 58.4754C52.026 58.4723 52.4759 58.0174 52.4729 57.4592C52.4699 56.9027 52.0179 56.454 51.4623 56.454C51.4604 56.454 51.4585 56.454 51.4566 56.454C50.4877 56.4592 49.105 56.4661 48.193 56.4641V45.4229C48.193 44.8645 47.7406 44.4121 47.1823 44.4121Z" fill="#8F94C1"/>
</g>
<defs>
<clipPath id="clip0_299_236">
<rect width="69" height="69" fill="white"/>
</clipPath>
</defs>
</svg>
