<svg width="70" height="70" viewBox="0 0 70 70" fill="none" xmlns="http://www.w3.org/2000/svg">
<g clip-path="url(#clip0_299_224)">
<path d="M21.0111 18.8926V17.5115H18.6783V18.6779H17.5119V17.5115H15.1792V18.6779C14.535 18.6779 14.0128 19.2001 14.0128 19.8443V29.1754C14.0128 29.8196 14.535 30.3418 15.1792 30.3418V31.5082H17.5119V30.3418H18.6783V31.5082H21.0111V30.1271C22.1149 29.7455 22.9515 28.8343 23.2386 27.7026C23.525 26.571 23.2226 25.371 22.4344 24.5099C23.2226 23.6493 23.525 22.4493 23.2386 21.3176C22.9515 20.186 22.1149 19.2742 21.0111 18.8926ZM16.3456 21.0107H19.8447C20.4889 21.0107 21.0111 21.5329 21.0111 22.1771C21.0111 22.8212 20.4889 23.3435 19.8447 23.3435H16.3456V21.0107ZM19.8447 28.009H16.3456V25.6763H19.8447C20.4889 25.6763 21.0111 26.1985 21.0111 26.8427C21.0111 27.4868 20.4889 28.009 19.8447 28.009Z" fill="#8F94C1"/>
<path d="M46.9686 39.3802C44.2633 34.9566 39.3357 32.388 34.1599 32.7047C28.9845 33.0214 24.4067 36.1703 22.2607 40.8906C21.4314 42.7045 21.0049 44.6768 21.0111 46.6713C21.0202 52.5921 24.7529 57.8666 30.3332 59.844C35.9134 61.8214 42.1344 60.0741 45.8688 55.4802C49.6032 50.8858 50.0435 44.4393 46.9686 39.3802ZM35.0079 58.3353C28.5693 58.3284 23.3513 53.1104 23.3439 46.6713C23.3388 45.0094 23.6942 43.3657 24.3856 41.8542C26.0628 38.1654 29.5324 35.6099 33.5522 35.1019C34.0351 35.0381 34.5215 35.0067 35.0079 35.0073C41.4498 35.0073 46.6719 40.2299 46.6719 46.6713C46.6719 53.1133 41.4498 58.3353 35.0079 58.3353Z" fill="#8F94C1"/>
<path d="M69.9998 23.3435C70.0033 14.7037 64.0733 7.19219 55.6687 5.18973C47.2642 3.18726 38.584 7.21782 34.6907 14.9304C30.1948 7.39153 21.0527 4.00453 12.7302 6.79466C4.40761 9.58479 -0.845167 17.798 0.111074 26.5232C1.06789 35.2484 7.97572 42.1283 16.7049 43.0487C15.1757 50.6029 18.4465 58.3206 24.9386 62.4754C31.4301 66.6306 39.8079 66.3687 46.0277 61.817C52.2476 57.2647 55.0303 49.3579 53.0324 41.9142C62.6238 41.0115 69.9645 32.9771 69.9998 23.3435ZM17.3023 40.7791C9.32778 40.1036 3.01739 33.7482 2.39945 25.7691C1.78094 17.79 7.03656 10.5382 14.8124 8.64279C22.5876 6.74739 30.5912 10.766 33.7145 18.1346C34.5745 20.1496 35.0147 22.3189 35.0079 24.5099C35.0079 25.0384 34.9732 25.5601 34.923 26.0858C34.9111 26.2025 34.9008 26.3193 34.8866 26.436C34.8274 26.9407 34.7471 27.4424 34.6394 27.9379C34.6326 27.9687 34.6246 27.9988 34.6172 28.029C34.1661 28.029 33.7134 28.0615 33.2606 28.1036C33.1057 28.1179 32.953 28.1401 32.7941 28.1583C32.588 28.1828 32.3812 28.1993 32.1739 28.2318C32.2007 28.1355 32.2087 28.0347 32.2331 27.939C32.3311 27.5506 32.4114 27.1576 32.4735 26.7613C32.5025 26.5864 32.5367 26.4116 32.5589 26.235C32.6324 25.6632 32.6717 25.0868 32.6751 24.5099C32.6751 16.7797 26.4086 10.5131 18.6783 10.5131C10.9481 10.5131 4.68155 16.7797 4.68155 24.5099C4.68155 24.9832 4.70604 25.4559 4.75388 25.9263C4.76926 26.0801 4.80059 26.2282 4.82166 26.3808C4.8638 26.6901 4.90082 26.9993 4.9629 27.3012C4.99992 27.4846 5.05517 27.6617 5.09959 27.8422C5.16338 28.1059 5.22318 28.3719 5.30234 28.6299C5.36043 28.819 5.43618 29.0006 5.50168 29.1863C5.58825 29.4267 5.66741 29.6704 5.76537 29.9033C5.8434 30.0913 5.93794 30.2707 6.02565 30.4541C6.13044 30.6768 6.22954 30.9017 6.34515 31.1176C6.44311 31.2998 6.55474 31.4678 6.66124 31.6495C6.77799 31.8551 6.90158 32.0647 7.03428 32.2629C7.15104 32.4372 7.27918 32.6001 7.40277 32.7681C7.54287 32.9594 7.67842 33.1519 7.82764 33.3348C7.96034 33.4982 8.105 33.6514 8.2451 33.8075C8.40002 33.9823 8.55208 34.1572 8.71155 34.3252C8.87159 34.4932 9.0208 34.6156 9.17799 34.7603C9.33575 34.905 9.51402 35.0787 9.69285 35.2267C9.87111 35.3748 10.0283 35.4893 10.1975 35.6186C10.3666 35.7484 10.5614 35.9022 10.7516 36.0332C10.9418 36.1636 11.1133 36.2661 11.2966 36.3829C11.4795 36.4996 11.6851 36.6301 11.8878 36.7423C12.0906 36.8539 12.2705 36.9393 12.4642 37.0361C12.6578 37.133 12.8782 37.2457 13.0924 37.3391C13.3071 37.4325 13.4939 37.5003 13.6966 37.5726C13.9 37.645 14.134 37.7418 14.3584 37.8153C14.5823 37.8887 14.777 37.9377 14.9878 37.9947C15.2213 38.0579 15.4462 38.1217 15.6798 38.1735C15.8945 38.2202 16.1137 38.2549 16.3319 38.2897C16.5648 38.3295 16.8063 38.3717 17.0489 38.3996C17.2705 38.4252 17.4948 38.4378 17.7198 38.4531C17.8912 38.4651 18.0592 38.4896 18.233 38.4953C18.1293 38.7077 18.0382 38.9258 17.9425 39.1411C17.8867 39.2676 17.8257 39.3912 17.7733 39.5182C17.6031 39.9356 17.443 40.3542 17.3023 40.7791ZM27.8745 29.4323C27.7145 29.499 27.5607 29.5759 27.4081 29.6459C27.0231 29.8174 26.6426 29.9956 26.2719 30.1938C26.1471 30.2604 26.0258 30.3305 25.9022 30.4005C25.5007 30.6244 25.1083 30.8624 24.725 31.1153L24.4613 31.2936C24.0479 31.5783 23.6463 31.8785 23.2579 32.1946C23.2015 32.2396 23.1412 32.284 23.0899 32.3295C22.6736 32.6764 22.2732 33.0409 21.8882 33.4225C21.8603 33.4504 21.8301 33.476 21.8022 33.5039C21.002 34.3052 20.2781 35.1783 19.6386 36.1124C19.3213 36.1391 19.0052 36.1739 18.6835 36.1739C12.2409 36.1767 7.01606 30.9558 7.01435 24.5133C7.01264 18.0708 12.2347 12.8471 18.6772 12.8459C25.1191 12.8454 30.3423 18.0674 30.3423 24.5099C30.3423 24.9114 30.319 25.3067 30.2808 25.6996C30.2677 25.8272 30.2432 25.9508 30.2273 26.0767C30.1908 26.3404 30.1538 26.6052 30.1008 26.8649C30.0706 27.0118 30.0296 27.1565 29.9938 27.3034C29.9368 27.537 29.877 27.7699 29.8047 27.9966C29.7557 28.1526 29.6987 28.3081 29.6429 28.463C29.5962 28.59 29.5433 28.7159 29.492 28.8423C29.3302 28.8936 29.1748 28.9585 29.0153 29.0149C28.6303 29.1453 28.243 29.2797 27.8745 29.4323ZM35.0079 63.001C29.8679 63.0118 25.024 60.5965 21.9389 56.4845C18.8543 52.373 17.8907 47.0468 19.3384 42.1146C19.3994 41.9034 19.4671 41.6949 19.5372 41.487C19.63 41.2068 19.732 40.9295 19.8413 40.6566C19.9057 40.4932 19.9672 40.3297 20.0372 40.1691C20.203 39.7887 20.3829 39.4156 20.5771 39.0506C20.6683 38.8803 20.7674 38.7134 20.8642 38.5454C21.0145 38.284 21.1689 38.0266 21.3306 37.7754C21.4929 37.5248 21.661 37.2998 21.8301 37.0652C21.9827 36.8562 22.1331 36.6443 22.2966 36.4433C22.4133 36.2963 22.5392 36.1579 22.6605 36.0155C22.894 35.7496 23.1269 35.4859 23.3695 35.2364C23.4595 35.1442 23.5529 35.0576 23.6441 34.9682C23.9283 34.6914 24.2273 34.422 24.5246 34.168C24.6106 34.0957 24.6983 34.0267 24.7848 33.9567C25.0958 33.7072 25.4147 33.4686 25.7422 33.2408C25.8493 33.1662 25.9592 33.0939 26.0686 33.0215C26.3744 32.8205 26.6882 32.632 27.002 32.4509C27.1535 32.366 27.3061 32.2817 27.4616 32.2014C27.7401 32.0556 28.0237 31.9212 28.3108 31.7908C28.5181 31.6985 28.726 31.6062 28.9367 31.5225C29.1782 31.4257 29.4231 31.3391 29.6697 31.2543C29.9157 31.1688 30.1908 31.076 30.4568 30.9986C30.8065 30.896 31.1567 30.8026 31.5207 30.7246C31.6443 30.6967 31.7667 30.6711 31.8903 30.6477C32.2878 30.5708 32.6905 30.5099 33.0977 30.4621C33.2492 30.445 33.3995 30.4285 33.551 30.4154C33.9104 30.384 34.2732 30.3687 34.6383 30.3607C34.7049 30.3607 34.7715 30.3538 34.8376 30.3538L34.8889 30.3641L35.0079 30.3419C35.5455 30.3419 36.0775 30.3715 36.6026 30.4228C36.6829 30.4307 36.7638 30.4438 36.8441 30.4518C37.2649 30.4996 37.6813 30.5686 38.0919 30.6432C38.2343 30.6711 38.3744 30.7001 38.5156 30.7314C38.9166 30.8192 39.3118 30.9194 39.7014 31.0373C39.7692 31.0572 39.8369 31.0732 39.9047 31.0942C40.3712 31.2412 40.8268 31.4086 41.2716 31.596C41.3883 31.6438 41.5051 31.6996 41.6133 31.7509C41.9436 31.8973 42.2677 32.0528 42.5849 32.2179C42.7216 32.2897 42.8566 32.3649 42.991 32.4406C43.302 32.6177 43.6101 32.8045 43.9148 33.0016C44.015 33.0665 44.1164 33.1286 44.2155 33.1964C44.6147 33.4692 45.0009 33.7579 45.3751 34.0626C45.4052 34.0888 45.4343 34.1179 45.4662 34.1435C45.7959 34.4197 46.1132 34.7113 46.4201 35.0126C46.5369 35.122 46.6406 35.2353 46.7488 35.3481C46.9686 35.577 47.1816 35.8099 47.3883 36.048C47.5051 36.1858 47.6213 36.322 47.738 36.4643C47.9414 36.7155 48.131 36.9752 48.3212 37.2389C48.4112 37.3659 48.508 37.4895 48.594 37.6182C48.8674 38.0277 49.1248 38.4463 49.3618 38.8803C49.3771 38.9093 49.3897 38.9407 49.4062 38.9697C49.6175 39.3632 49.8094 39.7653 49.9894 40.176C50.064 40.3485 50.1295 40.5257 50.1967 40.6988C52.1889 45.7238 51.5596 51.41 48.5172 55.8779C45.4742 60.3459 40.4139 63.0141 35.0079 63.001ZM49.4444 34.8594L49.4273 34.8383C49.384 34.7859 49.3361 34.737 49.2917 34.6846C49.2262 34.6065 49.1567 34.5319 49.0901 34.451C48.9654 34.3064 48.8418 34.1606 48.7131 34.0211C48.5849 33.8809 48.4545 33.7505 48.3235 33.6161C48.2398 33.5313 48.1566 33.4458 48.0706 33.3632C47.9841 33.2801 47.8736 33.1633 47.7722 33.0665C47.5541 32.8615 47.3263 32.6678 47.099 32.4731C47.0256 32.4099 46.9555 32.3426 46.8809 32.2806L46.8701 32.2715L46.7687 32.1872C46.3621 31.8563 45.9395 31.547 45.5078 31.2543C45.4297 31.2007 45.3506 31.1529 45.2748 31.1005C45.0413 30.9496 44.8209 30.7981 44.5863 30.6568C44.4701 30.5868 44.3476 30.5253 44.2297 30.4575L44.0976 30.384C43.9871 30.3225 43.8783 30.2593 43.7678 30.1995C43.6568 30.1403 43.5343 30.0725 43.4176 30.0121C43.2684 29.9364 43.1146 29.8697 42.9631 29.7974C42.7461 29.696 42.5325 29.5895 42.3121 29.495C42.2677 29.4768 42.2221 29.4603 42.1789 29.4415C42.016 29.3737 41.8491 29.3145 41.6845 29.2501C41.5199 29.1863 41.3428 29.1106 41.1668 29.0485C38.5914 24.4558 39.4126 18.7064 43.171 15.0181C46.9299 11.3304 52.693 10.6179 57.2367 13.2799C61.7804 15.9419 63.9765 21.3177 62.5971 26.3996C61.2171 31.4815 56.6033 35.0086 51.3375 35.0075C50.7036 35.0092 50.0708 34.9596 49.4444 34.8594ZM52.2966 39.6417C52.2789 39.5973 52.2567 39.554 52.2379 39.5102C52.1929 39.4014 52.1411 39.2966 52.0944 39.189C51.9133 38.7749 51.7173 38.3683 51.5055 37.969C51.4497 37.8631 51.3887 37.7555 51.3352 37.6495C51.2817 37.5436 51.2184 37.4337 51.1626 37.3289C51.2224 37.3289 51.2794 37.3369 51.3375 37.3369C57.5157 37.3744 62.9969 33.3815 64.8547 27.4891C66.7125 21.5973 64.5135 15.1821 59.4311 11.6693C54.3491 8.15641 47.5706 8.366 42.7154 12.1864C37.8595 16.0068 36.0615 22.5456 38.2799 28.3115C37.9558 28.254 37.63 28.2016 37.3003 28.1623C37.196 28.1492 37.0924 28.1236 36.9876 28.1122C37.0001 28.0478 37.0047 27.9812 37.0166 27.9157C37.1003 27.4658 37.1681 27.0118 37.2182 26.5545C37.2336 26.4116 37.2501 26.268 37.2615 26.1245C37.3082 25.588 37.3407 25.0475 37.3407 24.5065C37.3407 23.8897 37.3094 23.2797 37.2501 22.6743C37.2313 22.475 37.1926 22.2802 37.167 22.0814C37.1146 21.6782 37.0633 21.2744 36.9853 20.878C36.9397 20.6445 36.8686 20.4116 36.8184 20.1837C36.7341 19.8341 36.6527 19.4747 36.5468 19.1261C36.4733 18.8801 36.381 18.6398 36.2956 18.396C36.2107 18.1522 36.135 17.8885 36.0359 17.6414C38.8807 10.0068 46.9185 5.63795 54.8725 7.40178C62.8266 9.16562 68.2639 16.5228 67.6146 24.6443C66.9659 32.7658 60.43 39.1668 52.2966 39.6452V39.6417Z" fill="#8F94C1"/>
<path d="M52.5038 30.3417V29.1753C54.4368 29.1753 56.003 27.6091 56.003 25.6762C56.003 23.7437 54.4368 22.177 52.5038 22.177H50.171C49.5269 22.177 49.0046 21.6547 49.0046 21.0106C49.0046 20.3664 49.5269 19.8442 50.171 19.8442H52.5038C53.1479 19.8442 53.6702 20.3664 53.6702 21.0106H56.003C56.003 19.0781 54.4368 17.5114 52.5038 17.5114V16.345H50.171V17.5114C48.2386 17.5114 46.6718 19.0781 46.6718 21.0106C46.6718 22.9435 48.2386 24.5098 50.171 24.5098H52.5038C53.1479 24.5098 53.6702 25.032 53.6702 25.6762C53.6702 26.3203 53.1479 26.8426 52.5038 26.8426H50.171C49.5269 26.8426 49.0046 26.3203 49.0046 25.6762H46.6718C46.6718 27.6091 48.2386 29.1753 50.171 29.1753V30.3417H52.5038Z" fill="#8F94C1"/>
<path d="M39.6433 50.3664C39.6621 50.2621 39.6655 50.1551 39.6541 50.0491C39.6541 50.0235 39.6609 49.999 39.6541 49.9734C39.6484 49.9563 39.6416 49.9386 39.6342 49.9221C39.6279 49.8931 39.6342 49.864 39.6222 49.8361L36.123 38.1722C35.9755 37.6784 35.521 37.3401 35.0056 37.3401C34.4902 37.3401 34.0363 37.6784 33.8882 38.1722L30.389 49.8361C30.381 49.864 30.3833 49.8931 30.3776 49.9221C30.3696 49.9386 30.3633 49.9563 30.3577 49.9734V50.0491C30.3457 50.1551 30.3497 50.2621 30.3679 50.3664C30.3679 50.4051 30.3776 50.4427 30.3867 50.4831C30.4237 50.6204 30.4847 50.7502 30.5678 50.8658V50.8738L34.067 55.5394C34.2868 55.8333 34.6326 56.0058 34.9999 56.0058C35.3672 56.0058 35.713 55.8333 35.9328 55.5394L39.432 50.8738V50.8658C39.5151 50.7502 39.5761 50.6204 39.6131 50.4831C39.6342 50.4427 39.6376 50.404 39.6433 50.3664ZM35.0079 42.5655L36.459 47.4025L35.6554 46.8672C35.2636 46.6058 34.7527 46.6058 34.3609 46.8672L33.5573 47.4025L35.0079 42.5655ZM35.0079 52.8917L33.1825 50.4575L35.0079 49.2376L36.8332 50.4552L35.0079 52.8917Z" fill="#8F94C1"/>
</g>
<defs>
<clipPath id="clip0_299_224">
<rect width="70" height="70" fill="white"/>
</clipPath>
</defs>
</svg>
