<svg width="70" height="70" viewBox="0 0 70 70" fill="none" xmlns="http://www.w3.org/2000/svg">
<path d="M68.5986 56.0889C67.6949 56.9926 66.4932 57.4902 65.2148 57.4902H4.78516C3.50684 57.4902 2.30508 56.9926 1.40137 56.0889C0.497656 55.1853 0 53.9835 0 52.7051V17.2949C0 16.0166 0.497656 14.8148 1.40137 13.9111C2.30508 13.0076 3.50684 12.5098 4.78516 12.5098H65.2148C66.4932 12.5098 67.6949 13.0076 68.5986 13.9111C69.5023 14.8148 70 16.0166 70 17.2949V23.4869C70 24.2402 69.3861 24.8541 68.6328 24.8541C67.8795 24.8541 67.2656 24.2402 67.2656 23.4869V17.2949C67.2643 16.1656 66.3441 15.2455 65.2148 15.2441H4.78516C3.65723 15.2455 2.73711 16.1656 2.73438 17.2949V52.7051C2.73711 53.833 3.65723 54.7531 4.78516 54.7559H65.2148C66.3441 54.7531 67.2643 53.833 67.2656 52.7051V35.7916C67.2656 35.0369 67.8795 34.423 68.6328 34.423C69.3861 34.423 70 35.0369 70 35.7916V52.7051C70 53.9835 69.5023 55.1853 68.5986 56.0889Z" fill="#8F94C1"/>
<path d="M68.6328 28.272C69.3879 28.272 70 28.8841 70 29.6392C70 30.3942 69.3879 31.0063 68.6328 31.0063C67.8777 31.0063 67.2656 30.3942 67.2656 29.6392C67.2656 28.8841 67.8777 28.272 68.6328 28.272Z" fill="#8F94C1"/>
<path d="M55.0977 45.8691C55.0977 46.6241 54.4856 47.2363 53.7305 47.2363H42.793C42.0379 47.2363 41.4258 46.6241 41.4258 45.8691C41.4258 45.1142 42.0379 44.502 42.793 44.502H53.7305C54.4856 44.502 55.0977 45.1142 55.0977 45.8691Z" fill="#8F94C1"/>
<path d="M52.2266 39.0332H60.4297C61.1848 39.0332 61.7969 39.6454 61.7969 40.4004C61.7969 41.1554 61.1848 41.7676 60.4297 41.7676H52.2266C51.4715 41.7676 50.8594 41.1554 50.8594 40.4004C50.8594 39.6454 51.4715 39.0332 52.2266 39.0332Z" fill="#8F94C1"/>
<path d="M45.6641 40.4004C45.6641 41.1554 45.052 41.7676 44.2969 41.7676H36.0938C35.3387 41.7676 34.7266 41.1554 34.7266 40.4004C34.7266 39.6454 35.3387 39.0332 36.0938 39.0332H44.2969C45.052 39.0332 45.6641 39.6454 45.6641 40.4004Z" fill="#8F94C1"/>
<path d="M22.9688 20.5762H31.1719C31.927 20.5762 32.5391 21.1884 32.5391 21.9434C32.5391 22.6983 31.927 23.3105 31.1719 23.3105H22.9688C22.2137 23.3105 21.6016 22.6983 21.6016 21.9434C21.6016 21.1884 22.2137 20.5762 22.9688 20.5762Z" fill="#8F94C1"/>
<path d="M38.9648 20.5762H47.168C47.9231 20.5762 48.5352 21.1884 48.5352 21.9434C48.5352 22.6983 47.9231 23.3105 47.168 23.3105H38.9648C38.2097 23.3105 37.5977 22.6983 37.5977 21.9434C37.5977 21.1884 38.2097 20.5762 38.9648 20.5762Z" fill="#8F94C1"/>
<path d="M6.83594 23.3105C6.08084 23.3105 5.46875 22.6983 5.46875 21.9434C5.46875 21.1884 6.08084 20.5762 6.83594 20.5762H15.0391C15.7942 20.5762 16.4062 21.1884 16.4062 21.9434C16.4062 22.6983 15.7942 23.3105 15.0391 23.3105H6.83594Z" fill="#8F94C1"/>
<path d="M54.9609 20.5762H63.1641C63.9192 20.5762 64.5312 21.1884 64.5312 21.9434C64.5312 22.6983 63.9192 23.3105 63.1641 23.3105H54.9609C54.2058 23.3105 53.5938 22.6983 53.5938 21.9434C53.5938 21.1884 54.2058 20.5762 54.9609 20.5762Z" fill="#8F94C1"/>
<path d="M18.7305 26.0449C19.4856 26.0449 20.0977 26.6571 20.0977 27.4121V28.9717C22.6825 29.6204 24.6094 32.0503 24.6094 34.9422C24.6094 37.3257 23.2999 39.3948 21.3925 40.4124C22.1211 41.3483 22.5586 42.5358 22.5586 43.8274C22.5586 45.7652 21.5752 47.4692 20.0977 48.4384V50.6543C20.0977 51.4093 19.4856 52.0215 18.7305 52.0215C17.9754 52.0215 17.3633 51.4093 17.3633 50.6543V49.2871H14.6289V50.6543C14.6289 51.4093 14.0168 52.0215 13.2617 52.0215C12.5066 52.0215 11.8945 51.4093 11.8945 50.6543V49.2244C11.3399 49.0502 10.9375 48.532 10.9375 47.9199V30.1465C10.9375 29.7829 11.0823 29.4343 11.3399 29.1777C11.4965 29.0217 11.6874 28.9081 11.8945 28.8429V27.4121C11.8945 26.6571 12.5066 26.0449 13.2617 26.0449C14.0168 26.0449 14.6289 26.6571 14.6289 27.4121V28.7883C15.5317 28.7916 16.5423 28.7952 17.3633 28.7976V27.4121C17.3633 26.6571 17.9754 26.0449 18.7305 26.0449ZM18.7204 31.5347C17.8951 31.5347 15.2995 31.5253 13.6719 31.519V38.3496H18.7204C20.4598 38.3496 21.875 36.821 21.875 34.9422C21.875 33.0634 20.4598 31.5347 18.7204 31.5347ZM19.8242 43.8274C19.8242 42.3246 18.6795 41.1019 17.2724 41.1019C16.6184 41.1019 14.9049 41.0951 13.6719 41.0899V46.5527H17.2724C18.6795 46.5527 19.8242 45.3302 19.8242 43.8274Z" fill="#8F94C1"/>
</svg>
