<svg width="50" height="50" viewBox="0 0 50 50" fill="none" xmlns="http://www.w3.org/2000/svg">
<path d="M31.3604 14.4001C30.833 13.8846 30.1651 13.5364 29.4405 13.3992C28.7159 13.2619 27.967 13.3417 27.2876 13.6285C26.6082 13.9154 26.0286 14.3965 25.6217 15.0115C25.2147 15.6265 24.9984 16.348 25 17.0855V35.8355C25.0022 36.5713 25.2207 37.2902 25.6285 37.9027C26.0363 38.5152 26.6153 38.9942 27.2933 39.28C27.9713 39.5658 28.7185 39.6459 29.4417 39.5101C30.1649 39.3744 30.8322 39.0289 31.3604 38.5167C36.3208 33.6959 43.75 26.4605 43.75 26.4605C43.75 26.4605 36.3208 19.223 31.3604 14.4001ZM12.6104 14.4001C12.083 13.8846 11.4151 13.5364 10.6905 13.3992C9.96595 13.2619 9.21697 13.3417 8.53758 13.6285C7.85819 13.9154 7.27864 14.3965 6.87167 15.0115C6.4647 15.6265 6.24844 16.348 6.25001 17.0855V35.8355C6.25216 36.5713 6.47075 37.2902 6.87853 37.9027C7.28631 38.5152 7.86528 38.9942 8.54331 39.28C9.22135 39.5658 9.96849 39.6459 10.6917 39.5101C11.4149 39.3744 12.0822 39.0289 12.6104 38.5167C17.5708 33.6959 25 26.4605 25 26.4605C25 26.4605 17.5708 19.223 12.6104 14.4001Z" fill="white"/>
</svg>
