<svg width="70" height="70" viewBox="0 0 70 70" fill="none" xmlns="http://www.w3.org/2000/svg">
<path d="M59.7488 10.2512C53.1381 3.64068 44.3488 0 35 0C25.6512 0 16.8619 3.64068 10.2512 10.2512C3.64068 16.8618 0 25.6512 0 35C0 44.1924 3.53855 52.8773 9.96393 59.4546C10.8608 60.3723 12.3684 58.9812 11.4308 58.0215C5.38207 51.8297 2.05078 43.6538 2.05078 35C2.05078 26.1989 5.47805 17.9246 11.7013 11.7013C17.9246 5.47805 26.1989 2.05078 35 2.05078C43.801 2.05078 52.0753 5.47805 58.2985 11.7013C64.5219 17.9246 67.9492 26.199 67.9492 35C67.9492 43.801 64.5219 52.0753 58.2985 58.2985C52.0753 64.5219 43.801 67.9492 35 67.9492C27.88 67.9492 21.1014 65.7137 15.3971 61.4846C14.3667 60.7198 13.0981 62.333 14.1757 63.1319C20.236 67.6251 27.4369 70 35 70C44.3488 70 53.1381 66.3593 59.7488 59.7488C66.3593 53.1381 70 44.3488 70 35C70 25.6512 66.3593 16.8618 59.7488 10.2512Z" fill="#E7E7E7"/>
<path d="M52.7252 19.896C50.2604 17.4313 46.9834 16.0739 43.4978 16.0739C40.3441 16.0739 37.3612 17.1852 34.9961 19.2223C29.8899 14.8311 22.0328 15.1357 17.274 19.8943C12.4599 24.7086 12.2905 32.4945 16.6075 37.6855C14.9125 39.2499 14.7313 41.9268 16.4004 43.5942C17.2081 44.4021 18.3385 44.8311 19.4779 44.7684C19.3474 47.1379 21.3579 49.1505 23.7296 49.0201C23.599 51.388 25.6099 53.4027 27.9814 53.2696C27.7676 57.1139 32.5281 58.8448 35.0631 56.1432C35.7199 56.7732 36.4968 57.3669 37.617 57.5123C40.0764 57.8316 42.3208 55.7384 42.1609 53.2671C44.5081 53.3717 46.5584 51.3729 46.4136 49.0154C47.0522 49.0426 47.7082 48.9149 48.3289 48.6252C49.8549 47.9135 50.763 46.4093 50.6658 44.7718C51.701 44.8295 52.7553 44.4944 53.574 43.7707C55.918 41.6992 55.024 39.23 53.4871 37.5205C55.4677 35.1724 56.5475 32.2311 56.5475 29.1235C56.5475 25.6377 55.19 22.3609 52.7252 19.896ZM19.2511 42.7244C17.5309 42.7244 16.6279 40.5655 17.8504 39.3428L21.4899 35.7034C23.2921 33.9012 26.0966 36.6998 24.2914 38.5047L20.6518 42.1443C20.2777 42.5184 19.7802 42.7244 19.2511 42.7244ZM23.5028 46.9761C21.7826 46.9761 20.8793 44.8172 22.102 43.5945L25.7416 39.9551C27.5438 38.1528 30.3495 40.9502 28.5431 42.7564L24.9036 46.396C24.5294 46.7701 24.0319 46.9761 23.5028 46.9761ZM26.3537 50.6474C25.5964 49.8903 25.5949 48.6048 26.3537 47.8461L29.9931 44.2066C31.7953 42.4044 34.5997 45.2027 32.7946 47.008L29.1552 50.6474C28.3828 51.42 27.126 51.42 26.3537 50.6474ZM30.6052 54.8991C29.847 54.1381 29.842 52.8608 30.6052 52.0977L34.2447 48.4581C36.0491 46.6541 38.8524 49.454 37.046 51.2597L33.4066 54.8991C32.6344 55.6716 31.3777 55.6716 30.6052 54.8991ZM40.105 53.7514C40.043 54.2688 39.7744 54.7363 39.3485 55.0677C38.3913 55.8125 37.3166 55.4542 36.5139 54.6922C37.4046 53.8015 38.59 52.8938 39.1963 51.7715C39.7578 52.2905 40.2018 52.9446 40.105 53.7514ZM52.4008 42.0881C51.836 42.6529 50.4494 43.1168 49.4914 42.1602C47.212 39.8827 44.9067 37.5753 42.6183 35.2869C41.7107 34.3799 40.2194 35.7883 41.1681 36.7371C43.4591 39.0281 45.753 41.316 48.0411 43.61C49.8236 45.3976 46.9371 48.1091 45.2396 46.4115C42.9486 44.1205 40.6577 41.8295 38.3667 39.5385C37.4592 38.6315 35.9679 40.0398 36.9165 40.9887C39.205 43.2771 41.514 45.5806 43.7895 47.8616C45.5702 49.6466 42.7788 52.4401 40.9917 50.6663L39.6403 49.3148C39.3642 47.2567 37.4853 45.7186 35.4169 45.8341C35.5491 43.4679 33.5343 41.4524 31.1672 41.5846C31.2988 39.2173 29.2856 37.1994 26.9135 37.3331C26.976 36.2256 26.5858 35.0973 25.7417 34.2531C24.1697 32.6815 21.612 32.6812 20.04 34.2532L18.0828 36.2103C14.9893 31.4584 14.4133 25.6558 18.7243 21.3446C22.6818 17.3872 29.2041 17.0761 33.5129 20.6535L27.548 26.6184C23.87 30.2967 29.5849 35.9852 33.2498 32.3203L39.2505 26.3194L44.12 31.1917C45.0271 32.0993 46.5187 30.6909 45.5704 29.7419C45.5704 29.7419 40.944 24.9072 39.8924 24.0666C39.4878 23.743 38.8912 23.7785 38.5255 24.1438L31.7996 30.8698C29.9957 32.6744 27.1922 29.8742 28.9981 28.0685L35.7205 21.346C37.7978 19.2686 40.56 18.1245 43.4979 18.1245C46.4359 18.1245 49.1977 19.2686 51.2753 21.346C53.3526 23.4233 54.4968 26.1853 54.4968 29.1232C54.4968 31.7011 53.6152 34.143 51.9959 36.1063L49.418 33.5918C48.5108 32.6841 47.0192 34.0926 47.9675 35.0415C48.9165 35.9363 51.6856 38.6011 51.6856 38.6011C52.4067 39.3308 53.8217 40.765 52.4008 42.0881Z" fill="#E7E7E7"/>
</svg>
