<svg width="75" height="66" viewBox="0 0 75 66" fill="none" xmlns="http://www.w3.org/2000/svg">
<path d="M32.6918 49.0556C31.8312 48.1952 30.8263 47.5663 29.7548 47.1642C32.1085 44.0079 31.7316 39.2198 28.8813 36.4758L28.8077 36.4025C26.3752 33.9701 22.7944 33.3699 19.7944 34.6005C19.4073 33.2955 18.6997 32.0996 17.7102 31.1101L17.6357 31.0357C14.5525 27.8224 9.00233 27.8227 5.91898 31.0367L5.71111 31.2446L5.27957 30.813C-1.75988 23.7736 -1.75988 12.3194 5.27972 5.27964C12.3193 -1.75996 23.7735 -1.75981 30.8133 5.27964L35.0235 9.49005L27.0351 17.2511C23.4741 20.5537 23.425 26.6338 26.9339 29.9952C30.2622 33.464 36.2505 33.4638 39.5785 29.9952L42.3324 27.2413C42.4188 27.155 42.5603 27.1552 42.6467 27.2413L59.1489 43.7432C59.1524 43.7467 59.1559 43.7504 59.1596 43.7539L59.7453 44.3396C60.8357 45.3859 60.8355 47.2684 59.7453 48.3147C58.6495 49.4103 56.8662 49.4104 55.7704 48.3146C55.7391 48.2832 55.7055 48.2558 55.673 48.2265C55.6137 48.1634 55.5555 48.0997 55.4938 48.038L50.8286 43.3728C49.8559 42.4001 48.2786 42.4001 47.3059 43.3728C46.3331 44.3454 46.3331 45.9228 47.3059 46.8954L51.9712 51.5607C53.2132 52.7525 53.2132 54.897 51.9712 56.0888C50.7792 57.331 48.635 57.331 47.4431 56.0888L42.8024 51.4482C41.8298 50.4755 40.2524 50.4755 39.2798 51.4482C38.307 52.4208 38.307 53.9982 39.2798 54.9708L43.8955 59.5865C45.1627 60.8334 45.1788 62.8826 43.9191 64.1407C42.7271 65.3829 40.5829 65.3829 39.3911 64.1407L34.1912 58.941C35.9351 55.8274 35.3439 51.6257 32.7652 49.1292L32.6918 49.0556Z" fill="white"/>
<path d="M70.017 5.8514C76.6532 12.4877 76.6608 23.281 70.0407 29.9274L60.9631 38.512L46.1694 23.7184C44.2324 21.6995 40.7466 21.6997 38.8097 23.7184L36.0558 26.4723C34.582 28.0083 31.9303 28.0082 30.4566 26.4723C29.7001 25.7159 29.2883 24.7098 29.2971 23.64C29.3059 22.5702 29.7342 21.5714 30.503 20.8274L45.8915 5.87674C52.5304 -0.790792 63.3646 -0.802804 70.017 5.8514Z" fill="white"/>
<path d="M13.2096 52.1474L13.1361 52.074C11.8545 50.8442 11.8543 48.6313 13.1361 47.4016L17.71 42.8276C17.7109 42.8267 17.7118 42.8257 17.7127 42.8248L20.6125 39.9248C21.9256 38.6074 24.085 38.6453 25.3583 39.9984C26.6399 41.2281 26.64 43.4411 25.3583 44.6708L17.8817 52.1474C16.5938 53.4354 14.4978 53.4354 13.2096 52.1474Z" fill="white"/>
<path d="M4.94138 43.8788L4.86755 43.805C3.57981 42.5167 3.57996 40.4211 4.86799 39.1329L9.44197 34.5589C10.6717 33.2773 12.8845 33.2772 14.1142 34.5589L14.1888 34.6333C15.4692 35.8619 15.4692 38.0753 14.1882 39.3043L9.6138 43.8788C8.32546 45.1672 6.22942 45.1669 4.94138 43.8788Z" fill="white"/>
<path d="M26.2773 60.2894C24.9893 61.5775 22.8931 61.5775 21.6051 60.2894L21.5317 60.2159C20.2435 58.9278 20.2435 56.8318 21.5317 55.5435L24.4968 52.5782C25.8098 51.2607 27.9694 51.2986 29.2426 52.6516C30.5242 53.8813 30.5244 56.0942 29.2426 57.324L26.2773 60.2894Z" fill="white"/>
</svg>
