<svg width="28" height="28" viewBox="0 0 28 28" fill="none" xmlns="http://www.w3.org/2000/svg">
<path d="M8.75 15.75H7.875C5.9418 15.75 4.375 17.3195 4.375 19.2566V22.7434C4.375 24.6799 5.9418 26.25 7.875 26.25H8.75C9.71633 26.25 10.5 25.4647 10.5 24.4967V17.5033C10.5 16.5348 9.71633 15.75 8.75 15.75ZM20.125 15.75H19.25C18.2837 15.75 17.5 16.5348 17.5 17.5033V24.4967C17.5 25.4647 18.2837 26.25 19.25 26.25H20.125C22.0582 26.25 23.625 24.6799 23.625 22.7434V19.2566C23.625 17.3201 22.0582 15.75 20.125 15.75ZM14 1.75C6.17477 1.75 0.249922 8.26492 0 15.75V21.875C0 22.3584 0.391562 22.75 0.875 22.75H1.75C2.23344 22.75 2.625 22.3584 2.625 21.875V15.75C2.625 9.47898 7.72898 4.38594 14 4.38484C20.271 4.38594 25.375 9.47898 25.375 15.75V21.875C25.375 22.3584 25.7666 22.75 26.25 22.75H27.125C27.6084 22.75 28 22.3584 28 21.875V15.75C27.7501 8.26492 21.8252 1.75 14 1.75Z" fill="#FF3E3E"/>
</svg>
