<svg width="26" height="25" viewBox="0 0 26 25" fill="none" xmlns="http://www.w3.org/2000/svg">
<path fill-rule="evenodd" clip-rule="evenodd" d="M13.375 0C6.47144 0 0.875 5.59644 0.875 12.5C0.875 19.4036 6.47144 25 13.375 25C20.2786 25 25.875 19.4036 25.875 12.5C25.875 5.59644 20.2786 0 13.375 0ZM10.6267 5.87361C11.3378 5.84125 11.5651 5.83333 13.3756 5.83333H13.3735C15.1847 5.83333 15.4111 5.84125 16.1222 5.87361C16.8319 5.90611 17.3166 6.01847 17.7416 6.18334C18.1805 6.35348 18.5514 6.58126 18.9222 6.95209C19.293 7.32265 19.5208 7.6946 19.6917 8.13308C19.8556 8.55697 19.9681 9.04142 20.0014 9.75115C20.0333 10.4623 20.0417 10.6895 20.0417 12.5001C20.0417 14.3106 20.0333 14.5373 20.0014 15.2484C19.9681 15.9579 19.8556 16.4425 19.6917 16.8665C19.5208 17.3048 19.293 17.6768 18.9222 18.0473C18.5518 18.4182 18.1804 18.6465 17.7421 18.8168C17.3179 18.9817 16.8329 19.094 16.1232 19.1265C15.412 19.1589 15.1855 19.1668 13.3748 19.1668C11.5644 19.1668 11.3373 19.1589 10.6262 19.1265C9.91656 19.094 9.43197 18.9817 9.0078 18.8168C8.5696 18.6465 8.19765 18.4182 7.82723 18.0473C7.45654 17.6768 7.22875 17.3048 7.05834 16.8664C6.89361 16.4425 6.78125 15.958 6.74861 15.2483C6.71639 14.5372 6.70833 14.3106 6.70833 12.5001C6.70833 10.6895 6.71667 10.4621 6.74847 9.75101C6.78042 9.04156 6.89292 8.55697 7.0582 8.13294C7.22903 7.6946 7.45681 7.32265 7.82765 6.95209C8.19821 6.5814 8.57016 6.35362 9.00863 6.18334C9.43253 6.01847 9.91698 5.90611 10.6267 5.87361Z" fill="white"/>
<path fill-rule="evenodd" clip-rule="evenodd" d="M12.7774 7.03463C12.8936 7.03444 13.0185 7.0345 13.1533 7.03456L13.3755 7.03463C15.1555 7.03463 15.3665 7.04101 16.0694 7.07296C16.7194 7.10268 17.0722 7.21129 17.3072 7.30255C17.6183 7.42338 17.8401 7.56783 18.0733 7.80116C18.3067 8.0345 18.4511 8.25672 18.5722 8.56784C18.6635 8.80256 18.7722 9.15534 18.8018 9.80535C18.8337 10.5081 18.8407 10.7192 18.8407 12.4984C18.8407 14.2776 18.8337 14.4887 18.8018 15.1915C18.7721 15.8415 18.6635 16.1943 18.5722 16.429C18.4514 16.7401 18.3067 16.9617 18.0733 17.1949C17.84 17.4282 17.6185 17.5727 17.3072 17.6935C17.0725 17.7852 16.7194 17.8935 16.0694 17.9232C15.3666 17.9552 15.1555 17.9621 13.3755 17.9621C11.5953 17.9621 11.3844 17.9552 10.6816 17.9232C10.0316 17.8932 9.67879 17.7846 9.44364 17.6933C9.13253 17.5725 8.91031 17.4281 8.67697 17.1947C8.44363 16.9614 8.29919 16.7397 8.17808 16.4285C8.08682 16.1938 7.97807 15.841 7.94849 15.191C7.91655 14.4882 7.91016 14.2771 7.91016 12.4968C7.91016 10.7165 7.91655 10.5065 7.94849 9.80368C7.97821 9.15368 8.08682 8.80089 8.17808 8.56589C8.29891 8.25478 8.44363 8.03255 8.67697 7.79922C8.91031 7.56588 9.13253 7.42144 9.44364 7.30032C9.67865 7.20866 10.0316 7.10032 10.6816 7.07046C11.2966 7.04268 11.5349 7.03435 12.7774 7.03296V7.03463ZM16.9341 8.14158C16.4925 8.14158 16.1341 8.4995 16.1341 8.94131C16.1341 9.38298 16.4925 9.74132 16.9341 9.74132C17.3758 9.74132 17.7341 9.38298 17.7341 8.94131C17.7341 8.49964 17.3758 8.1413 16.9341 8.1413V8.14158ZM9.95184 12.5C9.95184 10.6093 11.4847 9.07639 13.3754 9.07631C15.2661 9.07631 16.7986 10.6092 16.7986 12.5C16.7986 14.3907 15.2662 15.9229 13.3755 15.9229C11.4848 15.9229 9.95184 14.3907 9.95184 12.5Z" fill="white"/>
<path d="M13.3756 10.2778C14.6028 10.2778 15.5978 11.2727 15.5978 12.5001C15.5978 13.7273 14.6028 14.7223 13.3756 14.7223C12.1482 14.7223 11.1533 13.7273 11.1533 12.5001C11.1533 11.2727 12.1482 10.2778 13.3756 10.2778Z" fill="white"/>
</svg>
