<svg width="60" height="60" viewBox="0 0 60 60" fill="none" xmlns="http://www.w3.org/2000/svg">
<path d="M30 0L22.7565 30L30 60C46.5686 60 60 46.5686 60 30C60 13.4314 46.5686 0 30 0Z" fill="#3B3B3B"/>
<path d="M0 30C0 46.5686 13.4314 60 30 60V0C13.4314 0 0 13.4314 0 30Z" fill="#00786B"/>
<path d="M46.9254 9.76894L40.9519 16.0534L38.2468 4.93823C41.4558 5.99362 44.3926 7.64772 46.9254 9.76894Z" fill="#06F5DD"/>
<path d="M46.9254 9.76904C52.7029 14.6078 56.3782 21.8743 56.3782 30.0001L41.3782 33.6217L42.159 12.4317C43.8347 11.688 45.4284 10.794 46.9254 9.76904Z" fill="#00D4BE"/>
<path d="M45 30H56.3783C56.3783 38.1257 52.7031 45.3922 46.9255 50.231L38.5375 48.7755L45 30Z" fill="#00B3A0"/>
<path d="M42.1591 47.5684C43.8347 48.3121 45.4284 49.2061 46.9255 50.2311C44.3927 52.3523 41.4559 54.0064 38.2468 55.0618L42.1591 47.5684Z" fill="#008F80"/>
<path d="M45 30.0001C45 36.5617 43.9459 42.6302 42.1591 47.5684L30 45.0001L26.3783 26.3784L45 30.0001Z" fill="#00D4BE"/>
<path d="M42.1591 47.5683C41.0934 50.5137 39.7666 53.0568 38.2468 55.0616C35.652 55.9148 32.8803 56.3782 30 56.3782L26.3783 50.6891L30 45C34.3285 45 38.4423 45.9184 42.1591 47.5683Z" fill="#00B3A0"/>
<path d="M42.1591 12.4318L26.3783 11.3784L30 30.0001H45C45 23.4385 43.9459 17.37 42.1591 12.4318Z" fill="#06F5DD"/>
<path d="M30 14.9999V3.62158C32.8804 3.62158 35.6521 4.08494 38.2468 4.93818C39.7666 6.94303 41.0933 9.48611 42.1591 12.4315C38.4423 14.0815 34.3286 14.9999 30 14.9999Z" fill="#8CFFF3"/>
<path d="M13.0746 9.76894L19.0482 16.0534L21.7532 4.93823C18.5443 5.99362 15.6074 7.64772 13.0746 9.76894Z" fill="white"/>
<path d="M13.0746 9.76904C7.29694 14.6078 3.6217 21.8744 3.6217 30.0001L18.6217 33.6217L17.8409 12.4317C16.1653 11.688 14.5716 10.794 13.0746 9.76904Z" fill="#DBFFF8"/>
<path d="M15 30H3.6217C3.6217 38.1257 7.29694 45.3922 13.0745 50.231L21.4626 48.7755L15 30Z" fill="#8CFFF3"/>
<path d="M17.8409 47.5684C16.1653 48.3121 14.5716 49.2061 13.0745 50.2311C15.6073 52.3523 18.5441 54.0064 21.7532 55.0618L17.8409 47.5684Z" fill="#06F5DD"/>
<path d="M22.5001 27.5854L15.0001 30C15.0001 36.5615 16.0542 42.6301 17.8409 47.5683L30.0001 45V30L22.5001 27.5854Z" fill="#06F5DD"/>
<path d="M17.8409 47.5683C18.9066 50.5137 20.2334 53.0568 21.7532 55.0616C24.348 55.9148 27.1197 56.3782 30 56.3782V45C25.6715 45 21.5577 45.9184 17.8409 47.5683Z" fill="#00D4BE"/>
<path d="M17.8409 12.4316C16.0541 17.3698 15 23.4382 15 29.9999H30V14.9999L17.8409 12.4316Z" fill="#8CFFF3"/>
<path d="M30 14.9999V3.62158C27.1197 3.62158 24.348 4.08494 21.7532 4.93818C20.2334 6.94303 18.9067 9.48611 17.8409 12.4315C21.5577 14.0815 25.6715 14.9999 30 14.9999Z" fill="#DBFFF8"/>
<path d="M49.2925 10.7076C44.1393 5.55436 37.2878 2.71631 30 2.71631C22.7122 2.71631 15.8607 5.55436 10.7075 10.7076C5.55433 15.8608 2.71628 22.7124 2.71628 30C2.71628 37.2877 5.55421 44.1393 10.7075 49.2925C15.8608 54.4457 22.7122 57.2837 30 57.2837C37.2878 57.2837 44.1393 54.4458 49.2925 49.2925C54.4457 44.1392 57.2837 37.2877 57.2837 30C57.2837 22.7124 54.4457 15.8608 49.2925 10.7076ZM55.455 29.0946H45.8983C45.8119 23.238 44.8877 17.6508 43.284 12.9097C44.5079 12.3254 45.6973 11.6583 46.8452 10.9101C51.9212 15.3944 55.201 21.8657 55.455 29.0946ZM37.6931 54.2844C35.5394 54.9682 33.2626 55.3722 30.9054 55.455V45.9204C34.4055 46.0275 37.8175 46.7551 41.0113 48.0634C40.087 50.4414 38.9727 52.5455 37.6931 54.2844ZM42.6612 48.7996C43.5873 49.2484 44.4916 49.7487 45.3716 50.2981C43.8916 51.4215 42.286 52.3874 40.5791 53.1699C41.3491 51.841 42.0449 50.3758 42.6612 48.7996ZM22.3069 54.2844C21.0273 52.5455 19.9131 50.4414 18.9885 48.0634C22.1823 46.7551 25.5943 46.0275 29.0944 45.9204V55.455C26.7373 55.3723 24.4605 54.9683 22.3069 54.2844ZM19.4209 53.1696C17.7141 52.3872 16.1083 51.4214 14.6284 50.2978C15.5083 49.7486 16.4127 49.2484 17.3388 48.7994C17.9551 50.3758 18.6509 51.841 19.4209 53.1696ZM22.3069 5.71561C24.4605 5.03182 26.7374 4.62787 29.0946 4.54502V14.0796C25.5944 13.9725 22.1825 13.2449 18.9887 11.9366C19.913 9.55865 21.0273 7.45455 22.3069 5.71561ZM17.3388 11.2004C16.4127 10.7516 15.5083 10.2513 14.6284 9.70197C16.1083 8.5785 17.7139 7.61264 19.4209 6.83018C18.6509 8.15908 17.9551 9.62428 17.3388 11.2004ZM37.6931 5.71561C38.9727 7.45455 40.0869 9.55865 41.0115 11.9366C37.8177 13.2449 34.4058 13.9725 30.9056 14.0796V4.54502C33.2627 4.62775 35.5394 5.0317 37.6931 5.71561ZM40.5791 6.83041C42.2859 7.61287 43.8916 8.57861 45.3716 9.70209C44.4916 10.2513 43.5873 10.7515 42.6612 11.2006C42.0449 9.62428 41.3491 8.15908 40.5791 6.83041ZM29.0946 15.8911V29.0946H15.9124C15.997 23.4869 16.8662 18.1546 18.3728 13.6412C21.7629 15.0201 25.3825 15.7841 29.0946 15.8911ZM29.0946 30.9054V44.1089C25.3825 44.2159 21.7629 44.98 18.3729 46.3588C16.8662 41.8455 15.997 36.5132 15.9124 30.9054H29.0946ZM30.9054 44.1089V30.9054H44.0876C44.003 36.5132 43.1338 41.8455 41.6272 46.3588C38.2371 44.98 34.6175 44.2159 30.9054 44.1089ZM30.9054 29.0946V15.8911C34.6175 15.7841 38.2371 15.0201 41.6271 13.6412C43.1338 18.1546 44.003 23.4869 44.0875 29.0946H30.9054ZM13.1548 10.9099C14.3027 11.6582 15.4921 12.3253 16.716 12.9096C15.1123 17.6507 14.1881 23.2378 14.1016 29.0945H4.54499C4.79893 21.8657 8.07878 15.3944 13.1548 10.9099ZM4.54499 30.9054H14.1016C14.1881 36.7621 15.1123 42.3492 16.716 47.0903C15.4921 47.6746 14.3027 48.3417 13.1548 49.09C8.07878 44.6057 4.79893 38.1344 4.54499 30.9054ZM46.8452 49.09C45.6973 48.3417 44.5079 47.6746 43.284 47.0903C44.8877 42.3492 45.8117 36.7621 45.8983 30.9054H55.455C55.201 38.1344 51.9212 44.6057 46.8452 49.09Z" fill="white"/>
</svg>
