<svg width="52" height="65" viewBox="0 0 52 65" fill="none" xmlns="http://www.w3.org/2000/svg">
<path d="M32.4068 42.9951C31.8574 42.9951 31.3079 43.4947 31.3079 45.1682C31.3079 46.8417 31.8574 47.3413 32.4068 47.3413C32.9563 47.3413 33.5058 46.8417 33.5058 45.1682C33.5058 43.4946 32.9563 42.9951 32.4068 42.9951Z" fill="white"/>
<path d="M19.5934 34.7524C19.0439 34.7524 18.4944 35.2521 18.4944 36.9255C18.4944 38.599 19.0439 39.0986 19.5934 39.0986C20.1429 39.0986 20.6923 38.599 20.6923 36.9255C20.6923 35.2521 20.1429 34.7524 19.5934 34.7524Z" fill="white"/>
<path d="M45.0129 23.0357C39.5076 16.9553 36.2359 11.6026 34.4605 8.18295C32.5377 4.47894 31.9076 2.1821 31.9028 2.16382L31.3304 0L29.2863 0.911756C29.0474 1.01825 23.3997 3.59384 20.2352 9.92282C18.6466 13.1001 18.3289 16.6375 18.3422 19.0455C18.35 20.4468 17.3571 21.6636 15.9815 21.9386C15.0171 22.1313 14.025 21.8315 13.3289 21.1354L9.5213 17.3278L8.21148 19.1339C8.07554 19.3214 4.87455 23.736 4.29181 24.618C1.44611 28.9257 -0.0377314 33.9438 0.000729095 39.1296C0.0522637 46.0557 2.77598 52.5446 7.67011 57.4013C12.564 62.2576 19.0737 64.932 26.0002 64.932C40.3366 64.9319 52 53.2685 52 38.9321C52.0001 33.7341 49.4534 27.9401 45.0129 23.0357ZM32.4068 50.0387C29.7593 50.0387 27.761 48.2903 27.761 45.1681C27.761 42.071 29.7591 40.2975 32.4068 40.2975C35.0545 40.2975 37.0527 42.0709 37.0527 45.1681C37.0527 48.2903 35.0544 50.0387 32.4068 50.0387ZM29.8592 32.3047H34.0803L22.141 49.7889H17.9199L29.8592 32.3047ZM14.9477 36.9255C14.9477 33.8284 16.9458 32.055 19.5935 32.055C22.2412 32.055 24.2394 33.8284 24.2394 36.9255C24.2394 40.0477 22.2412 41.7962 19.5935 41.7962C16.9458 41.7962 14.9477 40.0477 14.9477 36.9255Z" fill="white"/>
</svg>
