<svg width="50" height="50" viewBox="0 0 50 50" fill="none" xmlns="http://www.w3.org/2000/svg">
<path d="M42.7815 43.75H32.2159L37.5002 33.1813L42.7815 43.75ZM37.5002 28.125C37.2099 28.1249 36.9252 28.2056 36.6782 28.3583C36.4312 28.5109 36.2316 28.7293 36.1018 28.9891L28.2893 44.6141C28.1702 44.8523 28.1141 45.1171 28.1261 45.3832C28.1382 45.6493 28.218 45.9079 28.3582 46.1344C28.4983 46.361 28.694 46.5479 28.9267 46.6775C29.1594 46.8071 29.4214 46.8751 29.6877 46.875H45.3127C45.5708 46.875 45.8248 46.8112 46.0521 46.6891C46.2795 46.5671 46.473 46.3906 46.6156 46.1755C46.7581 45.9604 46.8451 45.7134 46.8689 45.4565C46.8927 45.1995 46.8524 44.9407 46.7518 44.7031L38.8987 28.9891C38.7689 28.7293 38.5693 28.5109 38.3223 28.3583C38.0753 28.2056 37.7906 28.1249 37.5002 28.125Z" fill="white"/>
<path d="M29.2904 35.625C27.198 36.7533 24.8757 37.3892 22.5003 37.4844C20.1249 37.5795 17.7592 37.1313 15.5832 36.1739C13.4073 35.2165 11.4785 33.7752 9.94375 31.9597C8.40902 30.1443 7.30882 28.0025 6.72694 25.6975C6.14507 23.3926 6.09686 20.9853 6.58599 18.6589C7.07512 16.3325 8.08868 14.1484 9.5495 12.2729C11.0103 10.3974 12.8799 8.88004 15.0157 7.83632C17.1516 6.79259 19.4975 6.25004 21.8748 6.24999V21.875L31.4014 31.4016L33.3076 27.5891C33.695 26.8092 34.293 26.1533 35.0339 25.6958C35.7748 25.2382 36.629 24.9972 37.4998 25H40.3435C40.9817 21.2134 40.4411 17.3222 38.795 13.8529C37.1489 10.3837 34.4767 7.50385 31.1401 5.60323C27.8034 3.7026 23.9635 2.87292 20.1398 3.22645C16.3161 3.57999 12.6934 5.09968 9.76177 7.57987C6.8302 10.0601 4.73134 13.381 3.74923 17.0933C2.76712 20.8055 2.94918 24.7299 4.27077 28.3353C5.59237 31.9407 7.98968 35.053 11.1383 37.2511C14.2869 39.4492 18.0348 40.627 21.8748 40.625C23.6707 40.6229 25.4568 40.3613 27.1779 39.8484L29.2904 35.625Z" fill="white"/>
</svg>
