<svg width="31" height="30" viewBox="0 0 31 30" fill="none" xmlns="http://www.w3.org/2000/svg">
<path d="M13.6373 4.26863C13.9733 4.05832 14.3573 3.93707 14.7532 3.91634C15.1491 3.89561 15.5437 3.97608 15.8998 4.15015L24.91 8.55464C25.0968 8.64608 25.2558 8.78579 25.3704 8.95931C25.4851 9.13283 25.5513 9.33385 25.5622 9.54155L26.0646 19.1359C26.0863 19.5514 25.9964 19.9652 25.8044 20.3343C25.6124 20.7034 25.3251 21.0145 24.9724 21.2352L17.0543 26.1944C16.7182 26.4048 16.3342 26.526 15.9383 26.5467C15.5425 26.5675 15.1478 26.487 14.7917 26.3129L6.39886 22.2079C6.02521 22.0253 5.70717 21.7461 5.47765 21.3993C5.24812 21.0525 5.11547 20.6506 5.09341 20.2353L4.59092 10.6398C4.58003 10.4321 4.62487 10.2252 4.72078 10.0407C4.8167 9.85614 4.9602 9.70059 5.13644 9.59014L13.6384 4.26857L13.6373 4.26863Z" stroke="#FF3E3E" stroke-width="2" stroke-linecap="round" stroke-linejoin="round"/>
<path d="M4.55469 9.95471L15.3454 15.231M15.3454 15.231L25.526 8.85649M15.3454 15.231L15.9555 26.8817" stroke="#FF3E3E" stroke-width="2" stroke-linejoin="round"/>
<path d="M9.95013 12.5928L20.1307 6.21838M8.37507 15.9792L11.9723 17.7441" stroke="#FF3E3E" stroke-width="2" stroke-linecap="round" stroke-linejoin="round"/>
</svg>
