<svg width="60" height="60" viewBox="0 0 60 60" fill="none" xmlns="http://www.w3.org/2000/svg">
<path d="M56.0532 15.1172C56.0532 24.7127 41.1516 34.339 30 34.339C18.8485 34.339 3.9469 24.096 3.9469 15.1172C9.11721 6.08555 18.8485 0 30 0C41.1516 0 50.8828 6.08555 56.0532 15.1172Z" fill="#FF50B6"/>
<path d="M60 30C60 40.2656 54.8438 49.3277 46.9793 54.7348C42.4512 57.8496 37.0266 59.7527 31.1719 59.9777L30 59.3895L28.8281 59.9777C22.9734 59.7527 17.5488 57.8496 13.0207 54.7348C5.15625 49.3277 0 40.2656 0 30C0 28.8117 0.0691406 27.6398 0.203906 26.4867C0.254297 26.0555 0.312891 25.6266 0.382031 25.2012C0.963281 21.5824 2.19258 18.1805 3.94688 15.1172C4.8375 16.6723 5.86289 18.1406 7.00781 19.5059C7.06523 19.5738 7.12266 19.6418 7.18125 19.7098C12.6832 26.1516 20.8652 30.2344 30 30.2344C31.698 30.2344 33.3621 30.0937 34.9828 29.8219C42.0832 28.6348 48.3387 24.9539 52.8187 19.7098C52.8762 19.6418 52.9348 19.5738 52.9922 19.5047C54.1371 18.1406 55.1625 16.6723 56.0531 15.1172C57.8074 18.1805 59.0367 21.5824 59.618 25.2012C59.6871 25.6266 59.7457 26.0555 59.7961 26.4867C59.9309 27.6398 60 28.8117 60 30Z" fill="#FF32A6"/>
<path d="M39.5644 53.7537L38.3053 56.2718L36.223 56.9014L33.3176 56.7561L30.7027 58.4509L30 60C29.6075 60 29.2172 59.993 28.8282 59.9778V59.3895C28.8282 57.034 30.7442 55.118 33.0996 55.118H36.3739C37.1203 55.118 37.7262 54.5122 37.7262 53.7668C37.7262 53.0204 37.1203 52.4145 36.3739 52.4145H21.6504C19.3125 52.4145 17.4106 50.5125 17.4106 48.1747V41.7024H18.5825L19.1291 49.0295L20.9208 50.7305H36.3682L38.898 51.5874L39.5644 53.7537Z" fill="#354445"/>
<path d="M40.07 53.7668C40.07 55.8047 38.4118 57.4618 36.3739 57.4618H33.0996C32.0368 57.4618 31.1719 58.3266 31.1719 59.3895V59.9778C30.7828 59.993 30.3926 60 30 60V59.3895C30 57.6774 31.3875 56.2899 33.0996 56.2899H36.3739C37.0711 56.2899 37.7016 56.0075 38.1586 55.5504C38.6157 55.0946 38.8981 54.4641 38.8981 53.7668C38.8981 52.3723 37.7684 51.2426 36.3739 51.2426H21.6504C19.9571 51.2426 18.5825 49.8692 18.5825 48.1747V41.7024H19.7543V48.1747C19.7543 49.22 20.6051 50.0708 21.6504 50.0708H36.3739C38.4118 50.0708 40.07 51.729 40.07 53.7668Z" fill="#3E5959"/>
<path d="M18.5824 38.0017L19.7543 43.3813L18.5824 47.1447H16.9406V38.0017H18.5824Z" fill="#222D2D"/>
<path d="M18.5825 38.0017H20.2243V47.1447H18.5825V38.0017Z" fill="#192121"/>
<path d="M29.9999 3.61768V5.51963C22.3085 8.03061 17.632 12.1742 16.941 19.4556L16.0641 33.3915H14.1622V19.4556C14.1622 15.2239 15.8098 11.2478 18.8016 8.25596C21.7921 5.26533 25.7695 3.61768 29.9999 3.61768Z" fill="#4F7A84"/>
<path d="M45.8379 19.4556V33.3915H43.9359L42.8625 19.4556C41.4261 11.2955 36.7148 7.51193 30 5.51963V3.61768C34.2305 3.61768 38.2078 5.26533 41.1996 8.25596C44.1902 11.2478 45.8379 15.2239 45.8379 19.4556Z" fill="#3E5959"/>
<path d="M30 5.51953V7.42031C26.7855 7.42031 23.7632 8.67305 21.4898 10.9453C19.2175 13.2188 17.966 16.241 17.966 19.4555V33.3914H16.064V19.4555C16.064 11.7586 22.3031 5.51953 30 5.51953Z" fill="#3E5959"/>
<path d="M43.9359 19.4555V33.3914H42.034V19.4555C42.034 16.241 40.7824 13.2188 38.5102 10.9453C36.2367 8.67305 33.2145 7.42031 30 7.42031V5.51953C37.6969 5.51953 43.9359 11.7586 43.9359 19.4555Z" fill="#354445"/>
<path d="M21.1019 24.8425V28.6183L18.5824 30.0036L14.162 28.6183L16.064 24.8425H21.1019Z" fill="#354445"/>
<path d="M21.1019 28.6184V33.7618L18.5829 35.3928L14.162 33.7618V28.6184H21.1019Z" fill="#2A3838"/>
<path d="M21.1019 33.7617V42.682H16.064L14.162 33.7617H21.1019Z" fill="#222D2D"/>
<path d="M16.0646 24.8425V28.6183L5.81067 33.696C5.84583 28.8 9.82551 24.8425 14.7298 24.8425H16.0646Z" fill="#3E5959"/>
<path d="M16.064 28.6184V33.7618L10.937 36.8297L5.8089 33.7618C5.8089 33.7395 5.8089 33.7172 5.81007 33.6961C5.87218 30.8848 9.84132 28.6184 14.7292 28.6184H16.064Z" fill="#354445"/>
<path d="M16.064 33.7617V42.682H14.7292C9.80265 42.682 5.8089 38.6883 5.8089 33.7617H16.064Z" fill="#2A3838"/>
<path d="M43.9359 24.8425L45.3691 28.6183L41.417 30.446L38.898 28.6183V24.8425H43.9359Z" fill="#2A3838"/>
<path d="M45.3691 28.6184V33.7618L41.417 35.3928L38.898 33.7618V28.6184H45.3691Z" fill="#222D2D"/>
<path d="M45.3691 33.7617L43.9359 42.682H38.898V33.7617H45.3691Z" fill="#192121"/>
<path d="M54.1898 33.696L43.9359 28.6183V24.8425H45.2707C50.175 24.8425 54.1547 28.8 54.1898 33.696Z" fill="#354445"/>
<path d="M54.191 33.7618L48.757 36.377L43.9359 33.7618V28.6184H45.2707C50.1586 28.6184 54.1277 30.8848 54.1898 33.6961C54.191 33.7172 54.191 33.7395 54.191 33.7618Z" fill="#2A3838"/>
<path d="M54.191 33.7617C54.191 38.6883 50.1972 42.682 45.2707 42.682H43.9359V33.7617H54.191Z" fill="#222D2D"/>
<path d="M30 2.802L31.2229 4.27528L30 6.83196C24.2074 6.83196 17.1375 14.0836 17.1375 14.0836L14.6309 13.036C15.8813 10.0418 17.966 7.49419 20.659 5.66724C23.4211 3.79341 26.6508 2.802 30 2.802Z" fill="#2A3838"/>
<path d="M45.3691 13.036L42.8625 14.0836C42.8625 14.0836 35.7926 6.83196 30 6.83196V2.802C32.2465 2.802 34.4285 3.24263 36.4828 4.11216C38.4656 4.95122 40.2469 6.15122 41.775 7.67935C43.3207 9.22505 44.5301 11.0274 45.3691 13.036Z" fill="#222D2D"/>
<path d="M31.5925 7.12266L29.9999 8.23594C27.7429 8.23594 25.5679 8.90156 23.7105 10.1625C21.8929 11.3965 20.4867 13.1133 19.6441 15.1312L17.1375 14.0836C19.2398 9.05273 24.2074 5.51953 29.9999 5.51953L31.5925 7.12266Z" fill="#222D2D"/>
<path d="M42.8625 14.0836L40.3559 15.1301C39.791 13.7777 38.9754 12.5637 37.9336 11.5219C35.8137 9.40313 32.9965 8.23594 30 8.23594V5.51953C35.7926 5.51953 40.7602 9.05273 42.8625 14.0836Z" fill="#192121"/>
<path d="M24.3786 36.8296V41.0454C24.2247 40.9831 24.0567 40.9485 23.8804 40.9485C23.1468 40.9485 22.5521 41.5432 22.5521 42.2768C22.5521 43.0104 23.1468 43.6051 23.8804 43.6051C24.614 43.6051 25.2088 43.0104 25.2088 42.2768V38.3523L26.7472 37.7876L24.3786 36.8296Z" fill="#FEDF2F"/>
<path d="M7.04823 17.208V20.8927C6.9137 20.8382 6.76686 20.808 6.61276 20.808C5.97151 20.808 5.45178 21.3277 5.45178 21.969C5.45178 22.6101 5.97163 23.1299 6.61276 23.1299C7.25401 23.1299 7.77374 22.6101 7.77374 21.969V18.5389L10.2109 17.6443V19.7317C10.0764 19.6772 9.92952 19.647 9.77541 19.647C9.13428 19.647 8.61444 20.1669 8.61444 20.808C8.61444 21.4491 9.13428 21.969 9.77541 21.969C10.4167 21.969 10.9364 21.4491 10.9364 20.808V15.7808L7.04823 17.208Z" fill="#FEDF2F"/>
<path d="M23.6071 25.2829V28.9677C23.4726 28.9132 23.3258 28.8829 23.1717 28.8829C22.5304 28.8829 22.0107 29.4028 22.0107 30.0439C22.0107 30.6852 22.5305 31.2049 23.1717 31.2049C23.8128 31.2049 24.3326 30.685 24.3326 30.0439V26.6138L26.7699 25.7192V27.8067C26.6354 27.7522 26.4885 27.722 26.3344 27.722C25.6932 27.722 25.1735 28.2418 25.1735 28.8829C25.1735 29.5241 25.6933 30.0439 26.3344 30.0439C26.9757 30.0439 27.4954 29.5241 27.4954 28.8829V23.8557L23.6071 25.2829Z" fill="#FEDF2F"/>
<path d="M34.9212 30.0037V34.2195C34.7673 34.1571 34.5993 34.1226 34.423 34.1226C33.6895 34.1226 33.0947 34.7173 33.0947 35.4509C33.0947 36.1845 33.6895 36.7792 34.423 36.7792C35.1566 36.7792 35.7514 36.1845 35.7514 35.4509V31.5264L37.2898 30.9617L34.9212 30.0037Z" fill="#FEDF2F"/>
<path d="M50.2525 16.75V20.9658C50.0986 20.9035 49.9305 20.8689 49.7543 20.8689C49.0207 20.8689 48.426 21.4636 48.426 22.1972C48.426 22.9308 49.0207 23.5255 49.7543 23.5255C50.4879 23.5255 51.0826 22.9308 51.0826 22.1972V18.2727L52.621 17.708L50.2525 16.75Z" fill="#FEDF2F"/>
</svg>
