<svg width="60" height="60" viewBox="0 0 60 60" fill="none" xmlns="http://www.w3.org/2000/svg">
<path d="M30 60C46.5685 60 60 46.5685 60 30C60 13.4315 46.5685 0 30 0C13.4315 0 0 13.4315 0 30C0 46.5685 13.4315 60 30 60Z" fill="#F36A3D"/>
<path d="M60 30C60 29.5757 59.989 29.1539 59.9715 28.7338L45.1831 13.9453L41.273 23.0619C41.273 23.0619 44.6134 26.4043 44.644 26.4341C44.4365 26.5812 44.1838 26.6685 43.9109 26.6685C43.8786 26.6685 42.6386 25.3962 42.6386 25.3962L41.2572 28.1194C41.2572 28.1194 42.6072 29.4715 42.6386 29.5022V31.7578L46.196 35.2734L41.3871 36.1766L20.8574 15.5531L11.3249 19.9366L10.8196 36.7061C10.8196 36.7061 15.1893 41.0762 15.2061 41.0931L11.0639 44.4586L26.3882 59.7829C27.5725 59.925 28.7774 60 30 60C46.5686 60 60 46.5686 60 30Z" fill="#EC4C36"/>
<path d="M9.88852 26.0684L8.35278 17.9063L20.8574 15.553L22.3905 23.7164L19.8907 24.186L18.8246 18.525L11.3249 19.9366L12.3885 25.5988L9.88852 26.0684Z" fill="#396973"/>
<path d="M18.8247 18.525L19.3576 21.3555L19.8907 24.186L21.1406 23.9512L22.3906 23.7165L21.6239 19.6347L20.8574 15.553L14.6051 16.7297L15.0748 19.2309L18.8247 18.525Z" fill="#2D4A59"/>
<path d="M32.5108 39.1628L29.5844 39.7228L24.4189 49.5705H37.7019L32.5108 39.1628Z" fill="#D4F4EE"/>
<path d="M31.1874 49.5705H37.7018L32.5107 39.1628L31.1874 39.416V49.5705Z" fill="#B0DAED"/>
<path d="M10.6049 41.9385L51.2627 34.3281L51.7306 36.828L11.0728 44.4384L10.6049 41.9385Z" fill="#ECFFFC"/>
<path d="M23.4771 24.2002C21.8741 22.5718 19.6349 21.5793 17.1919 21.5793C16.6322 21.5793 16.0723 21.6301 15.5378 21.732C11.4155 22.5208 8.28564 26.1342 8.28564 30.4856C8.28564 36.4909 13.3494 38.4248 13.604 38.6538L18.5406 37.7377L23.477 36.7963C23.5534 36.669 24.2151 36.0839 24.8513 35.0404C25.4874 33.9717 26.0981 32.4703 26.0981 30.4856C26.0983 28.0427 25.1058 25.8034 23.4771 24.2002Z" fill="#396973"/>
<path d="M43.9108 21.5793C43.21 21.5793 42.6385 21.0089 42.6385 20.307C42.6385 19.6049 43.21 19.0346 43.9108 19.0346C44.6116 19.0346 45.1831 19.605 45.1831 20.307H47.7277C47.7277 18.6504 46.6608 17.2513 45.1831 16.7243V13.9453H42.6385V16.7243C41.1606 17.2513 40.0939 18.6504 40.0939 20.307C40.0939 22.4118 41.8061 24.1239 43.9109 24.1239C44.6117 24.1239 45.1832 24.6942 45.1832 25.3962C45.1832 26.0982 44.6117 26.6685 43.9109 26.6685C43.2101 26.6685 42.6386 26.0981 42.6386 25.3962H40.094C40.094 27.0527 41.1609 28.4518 42.6386 28.9788V31.7578H45.1832V28.9788C46.6611 28.4518 47.7278 27.0527 47.7278 25.3962C47.7277 23.2914 46.0156 21.5793 43.9108 21.5793Z" fill="#FFEA80"/>
<path d="M45.1831 28.9789C46.6609 28.4519 47.7277 27.0528 47.7277 25.3963C47.7277 23.2915 46.0155 21.5793 43.9108 21.5793V24.124C44.6115 24.124 45.1831 24.6943 45.1831 25.3963C45.1831 26.0983 44.6115 26.6686 43.9108 26.6686V31.7579H45.1831V28.9789Z" fill="#FFCC66"/>
<path d="M45.1831 16.7243V13.9453H43.9108V19.0346C44.6115 19.0346 45.1831 19.605 45.1831 20.307H47.7277C47.7277 18.6504 46.6608 17.2513 45.1831 16.7243Z" fill="#FFCC66"/>
<path d="M31.1874 40.6855L51.7142 36.8249L51.2471 34.325L31.1874 38.0981V40.6855Z" fill="#D4F4EE"/>
<path d="M26.0983 30.4855C26.0983 32.4702 25.4876 33.9715 24.8514 35.0403C24.2152 36.0837 23.5535 36.6688 23.4771 36.7961L18.5407 37.7375L15.5379 21.732C16.0724 21.6302 16.6322 21.5793 17.192 21.5793C19.6349 21.5793 21.8742 22.5718 23.4772 24.2002C25.1058 25.8033 26.0983 28.0426 26.0983 30.4855Z" fill="#2D4A59"/>
</svg>
