<svg width="26" height="25" viewBox="0 0 26 25" fill="none" xmlns="http://www.w3.org/2000/svg">
<path fill-rule="evenodd" clip-rule="evenodd" d="M12.75 0C5.84644 0 0.25 5.59644 0.25 12.5C0.25 19.4036 5.84644 25 12.75 25C19.6536 25 25.25 19.4036 25.25 12.5C25.25 5.59644 19.6536 0 12.75 0ZM12.4019 10.5927L12.3756 10.1602C12.2969 9.03911 12.9877 8.01517 14.0806 7.61795C14.4828 7.47672 15.1648 7.45906 15.6107 7.58264C15.7856 7.6356 16.1178 7.81215 16.3539 7.97103L16.7823 8.26233L17.2545 8.11227C17.5168 8.03282 17.8665 7.90042 18.0239 7.81215C18.1726 7.7327 18.3037 7.68857 18.3037 7.71505C18.3037 7.86511 17.9802 8.37708 17.7092 8.65955C17.3419 9.05677 17.4469 9.09208 18.1901 8.82726C18.636 8.6772 18.6447 8.6772 18.5573 8.84492C18.5048 8.93319 18.2338 9.24214 17.9452 9.5246C17.4556 10.0101 17.4294 10.0631 17.4294 10.4691C17.4294 11.0958 17.1321 12.4022 16.8348 13.1172C16.284 14.459 15.1036 15.8448 13.9232 16.5422C12.262 17.522 10.0499 17.7691 8.18749 17.1954C7.56671 17.0012 6.5 16.5068 6.5 16.4186C6.5 16.3921 6.82351 16.3568 7.21697 16.348C8.03885 16.3303 8.86074 16.1008 9.56022 15.6948L10.0324 15.4123L9.49027 15.2269C8.72085 14.9621 8.03011 14.353 7.85524 13.7793C7.80278 13.5939 7.82027 13.5851 8.3099 13.5851L8.81703 13.5762L8.38859 13.3732C7.88147 13.1172 7.41807 12.6847 7.19074 12.2434C7.02461 11.9256 6.81477 11.1223 6.87597 11.0605C6.89346 11.034 7.07707 11.087 7.28691 11.1576C7.89022 11.3783 7.96891 11.3253 7.61917 10.9546C6.96341 10.2837 6.7623 9.28627 7.07707 8.34177L7.22571 7.91807L7.80278 8.49183C8.98315 9.64818 10.3734 10.3367 11.9647 10.5397L12.4019 10.5927Z" fill="white"/>
</svg>
