<svg width="26" height="25" viewBox="0 0 26 25" fill="none" xmlns="http://www.w3.org/2000/svg">
<path fill-rule="evenodd" clip-rule="evenodd" d="M13.125 0C6.22144 0 0.625 5.59644 0.625 12.5C0.625 19.4036 6.22144 25 13.125 25C20.0286 25 25.625 19.4036 25.625 12.5C25.625 5.59644 20.0286 0 13.125 0ZM18.0219 7.08604C19.5631 7.13119 20.2901 8.13064 20.201 10.0844C20.1343 11.5445 19.1146 13.5433 17.1418 16.081C15.1025 18.7308 13.3769 20.0563 11.9659 20.0563C11.0912 20.0563 10.3514 19.2498 9.74683 17.6354C9.59045 17.0619 9.43412 16.4885 9.27779 15.9151C9.0307 15.0088 8.78363 14.1025 8.53636 13.1962C8.08732 11.5827 7.6061 10.7751 7.09098 10.7751C6.97872 10.7751 6.58607 11.0112 5.91372 11.4813L5.20833 10.5725C5.94866 9.9223 6.67879 9.27192 7.39715 8.62067C8.38448 7.76791 9.1262 7.31904 9.62021 7.27389C10.7871 7.16163 11.5056 7.95939 11.7753 9.66716C12.0668 11.51 12.2686 12.656 12.3817 13.1045C12.7187 14.6334 13.089 15.3971 13.4933 15.3971C13.8069 15.3971 14.2788 14.9014 14.9077 13.9092C15.5354 12.9177 15.872 12.1632 15.9173 11.6446C16.0071 10.7889 15.6705 10.3599 14.9077 10.3599C14.5486 10.3599 14.1783 10.4426 13.7974 10.6059C14.5348 8.1917 15.9431 7.0191 18.0219 7.08604Z" fill="white"/>
</svg>
