<svg width="24" height="24" viewBox="0 0 24 24" fill="none" xmlns="http://www.w3.org/2000/svg">
<path d="M12.04 2.00006C6.57999 2.00006 2.12999 6.45006 2.12999 11.9101C2.12999 13.6601 2.58999 15.3601 3.44999 16.8601L2.04999 22.0001L7.29999 20.6201C8.74999 21.4101 10.38 21.8301 12.04 21.8301C17.5 21.8301 21.95 17.3801 21.95 11.9201C21.95 9.27006 20.92 6.78006 19.05 4.91006C18.1332 3.98399 17.0412 3.24973 15.8376 2.75011C14.6341 2.25049 13.3431 1.99552 12.04 2.00006ZM12.05 3.67006C14.25 3.67006 16.31 4.53006 17.87 6.09006C18.6356 6.85541 19.2426 7.76438 19.6561 8.76482C20.0697 9.76526 20.2817 10.8375 20.28 11.9201C20.28 16.4601 16.58 20.1501 12.04 20.1501C10.56 20.1501 9.10999 19.7601 7.84999 19.0001L7.54999 18.8301L4.42999 19.6501L5.25999 16.6101L5.05999 16.2901C4.23393 14.9787 3.797 13.4599 3.79999 11.9101C3.80999 7.37006 7.49999 3.67006 12.05 3.67006ZM8.52999 7.33006C8.36999 7.33006 8.09999 7.39006 7.86999 7.64006C7.64999 7.89006 6.99999 8.50006 6.99999 9.71006C6.99999 10.9301 7.88999 12.1001 7.99999 12.2701C8.13999 12.4401 9.75999 14.9401 12.25 16.0001C12.84 16.2701 13.3 16.4201 13.66 16.5301C14.25 16.7201 14.79 16.6901 15.22 16.6301C15.7 16.5601 16.68 16.0301 16.89 15.4501C17.1 14.8701 17.1 14.3801 17.04 14.2701C16.97 14.1701 16.81 14.1101 16.56 14.0001C16.31 13.8601 15.09 13.2601 14.87 13.1801C14.64 13.1001 14.5 13.0601 14.31 13.3001C14.15 13.5501 13.67 14.1101 13.53 14.2701C13.38 14.4401 13.24 14.4601 13 14.3401C12.74 14.2101 11.94 13.9501 11 13.1101C10.26 12.4501 9.76999 11.6401 9.61999 11.3901C9.49999 11.1501 9.60999 11.0001 9.72999 10.8901C9.83999 10.7801 9.99999 10.6001 10.1 10.4501C10.23 10.3101 10.27 10.2001 10.35 10.0401C10.43 9.87006 10.39 9.73006 10.33 9.61006C10.27 9.50006 9.76999 8.26006 9.55999 7.77006C9.35999 7.29006 9.15999 7.35006 8.99999 7.34006C8.85999 7.34006 8.69999 7.33006 8.52999 7.33006Z" fill="white"/>
</svg>
